<svg id="svg" version="1.1" xmlns="http://www.w3.org/2000/svg" xmlns:xlink="http://www.w3.org/1999/xlink" width="400" height="400" viewBox="0, 0, 400,400"><g id="svgg"><path id="path0" d="M191.023 7.614 C 190.970 7.664,189.759 7.798,188.333 7.911 C 186.907 8.024,184.907 8.218,183.889 8.341 C 182.870 8.464,181.370 8.626,180.556 8.700 C 177.553 8.975,175.283 9.318,171.703 10.039 C 166.349 11.117,158.105 13.278,157.532 13.754 C 157.260 13.980,157.037 14.059,157.037 13.929 C 157.037 13.800,156.467 13.932,155.771 14.223 C 155.075 14.514,154.408 14.655,154.289 14.536 C 154.171 14.418,154.074 14.543,154.074 14.815 C 154.074 15.086,153.970 15.204,153.842 15.076 C 153.714 14.949,153.044 15.080,152.354 15.369 C 151.663 15.658,151.019 15.906,150.923 15.920 C 149.935 16.068,144.491 18.373,138.986 20.974 C 137.511 21.670,136.261 22.195,136.208 22.140 C 136.155 22.085,135.611 22.392,135.000 22.823 C 134.389 23.254,133.514 23.723,133.056 23.865 C 132.597 24.008,132.222 24.279,132.222 24.469 C 132.222 24.659,131.946 24.815,131.609 24.815 C 131.272 24.815,130.480 25.197,129.850 25.664 C 129.219 26.132,127.454 27.243,125.926 28.133 C 124.398 29.024,122.731 30.058,122.222 30.432 C 116.926 34.318,110.235 39.426,108.917 40.590 C 104.789 44.234,96.160 53.147,94.074 55.923 C 93.565 56.600,92.970 57.336,92.752 57.559 C 92.535 57.781,91.717 58.880,90.935 60.000 C 90.153 61.120,89.405 62.120,89.273 62.222 C 88.902 62.509,84.074 69.892,84.074 70.173 C 84.074 70.310,83.616 71.122,83.056 71.976 C 82.495 72.831,81.838 73.861,81.596 74.265 C 80.833 75.535,76.296 84.722,76.296 84.996 C 76.296 85.141,76.057 85.784,75.764 86.426 C 75.471 87.067,74.955 88.259,74.617 89.074 C 73.836 90.959,70.753 100.373,70.813 100.688 C 70.838 100.819,70.760 101.176,70.640 101.481 C 70.308 102.329,69.318 106.688,69.127 108.148 C 69.033 108.861,68.921 109.486,68.877 109.537 C 68.832 109.588,68.766 109.921,68.728 110.278 C 68.667 110.856,68.316 112.912,67.921 115.000 C 67.653 116.417,67.322 123.914,67.358 127.778 C 67.400 132.456,67.826 138.479,68.313 141.296 C 68.419 141.907,68.606 143.074,68.729 143.889 C 68.853 144.704,69.180 146.370,69.458 147.593 C 69.735 148.815,70.037 150.231,70.129 150.741 C 70.482 152.710,71.887 157.879,72.596 159.815 C 72.745 160.222,73.125 161.389,73.440 162.407 C 73.755 163.426,74.449 165.426,74.982 166.852 C 75.515 168.278,76.016 169.694,76.097 170.000 C 76.250 170.581,78.587 176.264,79.982 179.444 C 80.428 180.462,81.048 181.878,81.360 182.592 C 82.509 185.219,82.785 185.747,83.148 186.013 C 83.352 186.163,83.368 186.288,83.183 186.291 C 82.999 186.294,83.112 186.588,83.435 186.944 C 83.757 187.301,84.021 187.676,84.022 187.778 C 84.022 187.880,84.228 188.463,84.480 189.074 C 84.732 189.685,84.958 190.269,84.983 190.370 C 85.008 190.472,85.730 192.017,86.588 193.803 C 87.446 195.590,88.148 197.215,88.148 197.415 C 88.148 197.614,88.343 197.778,88.580 197.778 C 88.818 197.778,88.903 197.887,88.770 198.020 C 88.637 198.153,88.846 198.778,89.234 199.409 C 89.622 200.039,91.260 203.139,92.874 206.296 C 94.488 209.454,96.435 213.204,97.200 214.630 C 97.966 216.056,99.026 218.056,99.556 219.074 C 100.086 220.093,100.713 221.176,100.948 221.481 C 101.184 221.787,101.938 223.120,102.624 224.444 C 103.310 225.769,103.959 226.935,104.065 227.037 C 104.403 227.359,105.147 228.651,105.918 230.255 C 106.329 231.109,106.827 231.907,107.026 232.030 C 107.225 232.153,107.674 232.872,108.024 233.627 C 108.374 234.382,109.462 236.305,110.441 237.900 C 111.421 239.495,112.222 240.953,112.222 241.140 C 112.222 241.328,112.371 241.481,112.552 241.481 C 112.734 241.481,112.987 241.898,113.115 242.407 C 113.243 242.917,113.511 243.333,113.711 243.333 C 113.911 243.333,114.074 243.552,114.074 243.819 C 114.074 244.086,114.366 244.632,114.722 245.033 C 115.079 245.433,115.688 246.381,116.077 247.140 C 116.465 247.898,116.924 248.519,117.095 248.519 C 117.267 248.519,117.407 248.756,117.407 249.046 C 117.407 249.336,117.824 250.068,118.333 250.673 C 118.843 251.278,119.259 251.902,119.259 252.058 C 119.259 252.402,121.472 255.924,122.098 256.576 C 122.343 256.832,122.645 257.358,122.768 257.746 C 122.891 258.133,123.245 258.548,123.556 258.667 C 123.867 258.786,124.042 259.011,123.946 259.167 C 123.850 259.322,124.350 260.282,125.056 261.299 C 125.763 262.316,127.231 264.503,128.318 266.159 C 129.406 267.815,130.482 269.285,130.709 269.425 C 130.937 269.566,131.041 269.814,130.941 269.976 C 130.840 270.138,131.088 270.569,131.490 270.934 C 131.893 271.298,132.222 271.755,132.222 271.948 C 132.222 272.142,132.641 272.825,133.154 273.465 C 133.666 274.106,134.217 274.796,134.378 275.000 C 134.539 275.204,134.662 275.471,134.650 275.594 C 134.630 275.811,135.322 276.832,136.852 278.846 C 137.259 279.382,137.759 280.094,137.963 280.427 C 138.363 281.081,142.304 286.838,145.023 290.741 C 145.946 292.065,147.087 293.734,147.559 294.450 C 148.032 295.166,148.690 295.978,149.024 296.254 C 149.357 296.531,149.630 296.911,149.630 297.098 C 149.630 297.285,149.799 297.640,150.005 297.886 C 151.031 299.107,154.074 303.400,154.076 303.628 C 154.077 303.772,154.585 304.431,155.206 305.093 C 155.826 305.755,156.211 306.296,156.061 306.296 C 155.910 306.296,156.204 306.755,156.713 307.315 C 157.222 307.875,159.953 311.583,162.782 315.556 C 165.611 319.528,168.023 322.861,168.143 322.963 C 168.263 323.065,169.257 324.398,170.352 325.926 C 171.448 327.454,172.525 328.826,172.746 328.976 C 172.967 329.125,173.008 329.250,172.837 329.254 C 172.667 329.257,172.917 329.730,173.393 330.304 C 174.591 331.750,175.327 332.740,179.773 338.889 C 181.908 341.843,183.875 344.505,184.142 344.806 C 184.410 345.106,184.630 345.446,184.630 345.561 C 184.630 345.677,185.145 346.431,185.776 347.237 C 186.406 348.044,188.725 351.204,190.929 354.259 C 193.133 357.315,195.638 360.679,196.495 361.736 L 198.055 363.657 199.097 362.569 C 199.670 361.971,200.017 361.481,199.870 361.481 C 199.611 361.481,199.909 361.051,201.111 359.687 C 201.417 359.340,205.138 354.393,209.381 348.695 C 213.624 342.996,217.295 338.083,217.539 337.778 C 217.783 337.472,218.052 337.056,218.137 336.852 C 218.309 336.441,218.764 335.846,219.691 334.819 C 220.031 334.443,220.211 334.039,220.093 333.920 C 219.974 333.801,220.057 333.704,220.278 333.704 C 220.499 333.704,221.050 333.106,221.501 332.375 C 221.953 331.644,222.665 330.728,223.083 330.338 C 223.501 329.948,223.730 329.630,223.592 329.630 C 223.352 329.630,224.068 328.656,225.119 327.551 C 225.388 327.268,225.521 327.037,225.415 327.037 C 225.308 327.037,225.647 326.579,226.169 326.019 C 226.690 325.458,227.951 323.750,228.970 322.222 C 229.989 320.694,231.252 318.986,231.777 318.426 C 232.302 317.866,232.613 317.407,232.468 317.407 C 232.323 317.407,232.834 316.585,233.602 315.580 C 234.371 314.575,235.417 313.143,235.926 312.398 C 236.435 311.653,237.562 310.142,238.430 309.040 C 239.298 307.939,239.891 307.037,239.746 307.037 C 239.602 307.037,240.050 306.454,240.741 305.741 C 241.432 305.028,241.864 304.444,241.701 304.444 C 241.538 304.444,241.906 303.874,242.518 303.177 C 243.130 302.480,244.418 300.688,245.380 299.195 C 246.342 297.703,247.275 296.426,247.453 296.358 C 247.632 296.290,247.778 296.072,247.778 295.873 C 247.778 295.674,248.319 294.790,248.981 293.909 C 250.289 292.169,250.513 291.843,252.303 289.074 C 252.962 288.056,253.713 287.002,253.973 286.733 C 254.232 286.464,254.444 286.120,254.444 285.969 C 254.444 285.819,254.744 285.372,255.111 284.977 C 255.478 284.582,256.103 283.683,256.500 282.979 C 256.897 282.275,258.585 279.745,260.251 277.357 C 261.916 274.969,263.483 272.629,263.732 272.156 C 263.981 271.683,264.287 271.213,264.411 271.111 C 264.925 270.689,266.655 267.777,266.394 267.772 C 266.238 267.769,266.279 267.644,266.484 267.494 C 266.934 267.165,268.889 264.571,268.889 264.303 C 268.889 264.197,269.389 263.370,270.000 262.465 C 270.611 261.559,271.111 260.634,271.111 260.409 C 271.111 260.184,271.252 260.000,271.423 260.000 C 271.595 260.000,272.121 259.250,272.593 258.333 C 273.064 257.417,273.590 256.667,273.762 256.667 C 273.934 256.667,274.074 256.493,274.074 256.280 C 274.074 256.067,274.824 254.798,275.741 253.459 C 276.657 252.120,277.407 250.878,277.407 250.699 C 277.407 250.519,277.949 249.580,278.611 248.612 C 279.273 247.644,280.013 246.519,280.255 246.111 C 282.867 241.718,283.704 240.223,283.704 239.951 C 283.704 239.774,283.832 239.630,283.990 239.630 C 284.147 239.630,284.604 239.005,285.005 238.241 C 285.406 237.477,285.832 236.769,285.951 236.667 C 286.071 236.565,286.426 235.981,286.740 235.370 C 288.412 232.119,289.101 230.914,289.352 230.802 C 289.505 230.735,289.630 230.443,289.630 230.154 C 289.630 229.866,289.780 229.630,289.964 229.630 C 290.148 229.630,290.487 229.171,290.719 228.611 C 290.951 228.051,291.540 226.926,292.028 226.111 C 293.300 223.988,293.690 223.282,298.579 214.259 C 299.131 213.241,300.383 210.824,301.361 208.889 C 302.339 206.954,303.225 205.287,303.329 205.185 C 303.532 204.987,307.188 197.717,307.240 197.407 C 307.257 197.306,307.833 196.056,308.519 194.630 C 309.204 193.204,309.787 191.954,309.813 191.852 C 309.839 191.750,310.475 190.363,311.227 188.769 C 311.978 187.176,312.593 185.812,312.593 185.740 C 312.593 185.667,313.103 184.471,313.727 183.081 C 314.863 180.552,315.267 179.613,315.888 178.056 C 316.070 177.597,316.654 176.259,317.184 175.082 C 317.714 173.906,318.148 172.778,318.148 172.577 C 318.148 172.377,318.310 171.923,318.508 171.569 C 319.044 170.610,322.786 161.152,323.305 159.444 C 323.553 158.630,323.903 157.630,324.082 157.222 C 324.484 156.312,324.964 154.610,326.169 149.815 C 329.109 138.115,329.705 125.565,327.902 113.333 C 327.532 110.825,325.910 103.129,325.404 101.481 C 325.123 100.565,324.515 98.565,324.054 97.037 C 323.593 95.509,323.098 94.093,322.953 93.889 C 322.808 93.685,322.489 92.852,322.244 92.037 C 321.999 91.222,321.495 89.889,321.123 89.074 C 319.679 85.908,319.259 84.873,319.259 84.481 C 319.259 84.257,319.065 84.074,318.827 84.074 C 318.590 84.074,318.489 83.980,318.605 83.864 C 318.904 83.565,313.249 72.549,312.057 71.111 C 311.804 70.806,311.061 69.639,310.407 68.519 C 307.902 64.229,304.288 58.990,303.096 57.920 C 302.615 57.489,302.222 56.989,302.222 56.809 C 302.222 56.629,301.597 55.780,300.833 54.922 C 300.069 54.065,298.944 52.743,298.333 51.984 C 295.774 48.806,291.215 44.108,287.602 40.926 C 286.214 39.704,284.610 38.287,284.036 37.778 C 282.430 36.351,274.044 30.165,273.962 30.346 C 273.922 30.434,273.410 30.062,272.824 29.520 C 272.238 28.977,271.613 28.622,271.435 28.733 C 271.257 28.843,271.111 28.788,271.111 28.611 C 271.111 27.986,254.907 19.259,253.746 19.259 C 253.552 19.259,252.589 18.855,251.605 18.361 C 250.115 17.613,244.842 15.675,243.519 15.389 C 242.987 15.273,239.164 14.147,235.926 13.151 C 232.083 11.969,229.736 11.401,224.630 10.416 C 220.614 9.641,218.261 9.270,213.704 8.693 C 212.787 8.576,211.787 8.415,211.481 8.334 C 209.963 7.930,191.382 7.276,191.023 7.614 M207.937 76.810 C 209.553 77.133,210.950 77.322,211.041 77.230 C 211.133 77.138,211.535 77.238,211.933 77.451 C 212.332 77.664,213.101 77.916,213.644 78.011 C 218.993 78.944,230.828 85.010,236.315 89.630 C 239.153 92.020,244.074 96.919,244.074 97.354 C 244.074 97.558,244.513 98.069,245.050 98.492 C 245.587 98.914,245.913 99.259,245.776 99.259 C 245.639 99.259,245.698 99.468,245.909 99.722 C 247.839 102.059,248.814 103.396,249.436 104.558 C 249.839 105.310,250.297 105.926,250.455 105.926 C 250.612 105.926,250.741 106.091,250.741 106.294 C 250.741 106.496,251.574 108.398,252.593 110.520 C 253.611 112.642,254.444 114.610,254.444 114.893 C 254.444 115.176,254.591 115.566,254.770 115.759 C 255.152 116.172,256.019 118.741,256.143 119.826 C 256.190 120.240,256.485 121.490,256.799 122.604 C 258.361 128.155,258.936 143.663,257.659 145.832 C 257.569 145.985,257.390 146.944,257.262 147.963 C 257.133 148.981,256.873 150.398,256.683 151.111 C 256.493 151.824,256.189 152.991,256.006 153.704 C 255.823 154.417,255.314 155.813,254.874 156.806 C 254.434 157.800,254.074 158.748,254.074 158.914 C 254.074 159.531,250.652 166.462,249.787 167.596 C 249.293 168.244,248.889 168.890,248.889 169.032 C 248.889 169.174,248.724 169.492,248.522 169.738 C 248.320 169.984,247.069 171.602,245.741 173.333 C 241.560 178.785,237.032 183.024,231.499 186.667 C 231.035 186.972,230.299 187.490,229.865 187.818 C 228.975 188.488,224.656 190.714,222.407 191.660 C 221.593 192.003,220.343 192.551,219.630 192.877 C 218.917 193.203,218.208 193.501,218.056 193.540 C 217.903 193.579,217.694 193.653,217.593 193.704 C 217.491 193.755,217.241 193.838,217.037 193.889 C 216.833 193.940,216.625 194.015,216.574 194.056 C 216.482 194.130,216.045 194.246,214.630 194.571 C 214.222 194.665,212.873 195.006,211.632 195.329 C 210.391 195.652,208.391 196.011,207.188 196.127 C 205.984 196.244,204.083 196.461,202.963 196.610 C 199.782 197.033,192.199 196.766,188.889 196.115 C 188.583 196.055,187.262 195.808,185.952 195.567 C 180.378 194.541,170.012 190.424,166.242 187.739 C 165.700 187.353,165.141 187.037,165.001 187.037 C 163.905 187.037,156.098 180.035,152.037 175.411 C 151.019 174.251,149.985 173.078,149.740 172.806 C 149.495 172.533,149.369 172.236,149.461 172.144 C 149.552 172.053,149.211 171.587,148.702 171.110 C 148.194 170.632,147.778 170.105,147.778 169.939 C 147.778 169.773,147.055 168.509,146.171 167.131 C 145.287 165.752,144.312 164.042,144.003 163.331 C 142.150 159.059,140.725 155.248,140.056 152.778 C 139.836 151.963,139.537 150.880,139.392 150.370 C 139.247 149.861,139.088 149.194,139.040 148.889 C 138.954 148.353,138.766 147.436,138.298 145.278 C 138.176 144.718,138.033 141.009,137.978 137.037 C 137.878 129.646,137.850 129.901,139.664 121.296 C 139.879 120.278,140.089 119.278,140.130 119.074 C 140.172 118.870,140.318 118.525,140.454 118.307 C 140.590 118.089,140.782 117.506,140.879 117.011 C 140.976 116.516,141.485 115.237,142.009 114.168 C 142.534 113.100,142.963 112.126,142.963 112.004 C 142.963 111.650,145.876 105.971,146.617 104.881 C 146.988 104.335,147.775 103.139,148.367 102.222 C 148.958 101.306,149.527 100.472,149.631 100.370 C 149.735 100.269,150.729 99.102,151.841 97.778 C 154.580 94.516,158.932 90.261,160.942 88.878 C 161.850 88.253,162.593 87.584,162.593 87.390 C 162.593 87.196,162.771 87.037,162.989 87.037 C 163.207 87.037,164.082 86.562,164.933 85.981 C 176.473 78.106,194.838 74.190,207.937 76.810 M147.222 328.954 C 145.796 329.092,143.880 329.308,142.963 329.433 C 142.046 329.558,141.046 329.666,140.741 329.672 C 140.068 329.686,130.676 330.949,128.519 331.316 C 128.009 331.402,126.593 331.578,125.370 331.707 C 124.148 331.836,122.856 332.094,122.500 332.280 C 122.144 332.466,121.852 332.547,121.852 332.459 C 121.852 332.372,121.227 332.449,120.463 332.631 C 119.699 332.813,118.491 333.062,117.778 333.185 C 114.295 333.783,104.486 335.896,102.407 336.496 C 102.000 336.614,101.500 336.757,101.296 336.814 C 101.093 336.871,100.299 337.047,99.533 337.205 C 98.767 337.362,98.047 337.642,97.933 337.826 C 97.820 338.010,97.571 338.064,97.382 337.947 C 97.192 337.830,96.829 337.865,96.574 338.024 C 96.319 338.184,95.710 338.370,95.220 338.437 C 94.730 338.504,93.896 338.778,93.368 339.045 C 92.840 339.312,91.741 339.651,90.926 339.798 C 90.111 339.946,89.210 340.260,88.925 340.496 C 88.639 340.733,88.347 340.884,88.276 340.833 C 88.206 340.782,88.065 340.762,87.963 340.787 C 87.861 340.813,87.653 340.857,87.500 340.886 C 87.111 340.959,82.565 342.596,81.667 342.987 C 75.133 345.826,70.478 348.354,67.230 350.827 C 65.645 352.033,61.631 355.926,61.972 355.926 C 62.130 355.926,61.815 356.509,61.271 357.222 C 60.727 357.935,60.378 358.519,60.495 358.519 C 60.612 358.519,60.486 359.148,60.214 359.917 C 58.735 364.109,61.191 369.404,66.691 373.882 C 69.060 375.811,77.760 380.741,78.794 380.741 C 78.954 380.741,79.723 381.083,80.503 381.500 C 82.491 382.566,88.777 384.804,89.040 384.540 C 89.161 384.419,89.259 384.515,89.259 384.753 C 89.259 384.991,89.384 385.150,89.537 385.107 C 89.690 385.064,91.065 385.418,92.593 385.895 C 94.966 386.634,97.150 387.232,100.094 387.948 C 100.451 388.035,100.906 388.206,101.104 388.329 C 101.302 388.451,101.961 388.614,102.567 388.691 C 103.174 388.768,104.991 389.173,106.605 389.591 C 108.219 390.010,110.102 390.431,110.788 390.527 C 111.475 390.623,113.287 390.980,114.815 391.320 C 117.900 392.006,118.279 392.074,120.914 392.412 C 121.926 392.542,122.854 392.710,122.977 392.786 C 123.192 392.919,125.876 393.338,127.778 393.534 C 128.287 393.587,128.787 393.672,128.889 393.724 C 128.991 393.775,129.491 393.848,130.000 393.886 C 130.509 393.924,131.676 394.072,132.593 394.216 C 134.544 394.523,135.319 394.622,141.481 395.345 C 146.221 395.901,150.517 396.325,153.148 396.497 C 153.963 396.551,155.630 396.704,156.852 396.838 C 160.054 397.188,163.007 397.389,174.259 398.021 C 183.270 398.526,207.197 398.712,216.296 398.347 C 226.139 397.953,234.455 397.500,236.625 397.240 C 237.564 397.128,239.439 396.957,240.791 396.860 C 242.143 396.763,244.809 396.500,246.717 396.276 C 248.624 396.051,250.852 395.800,251.667 395.718 C 253.016 395.582,255.368 395.304,257.778 394.995 C 258.287 394.930,259.370 394.792,260.185 394.688 C 261.000 394.585,262.167 394.417,262.778 394.314 C 263.389 394.212,264.722 394.029,265.741 393.908 C 266.759 393.787,268.509 393.503,269.630 393.279 C 270.750 393.054,272.167 392.834,272.778 392.790 C 273.389 392.746,274.222 392.605,274.630 392.476 C 275.037 392.347,275.954 392.170,276.667 392.082 C 277.380 391.994,278.380 391.824,278.889 391.705 C 280.500 391.329,281.995 391.066,283.365 390.917 C 284.095 390.837,285.428 390.592,286.328 390.371 C 287.227 390.151,288.463 389.881,289.074 389.772 C 289.685 389.663,291.435 389.242,292.963 388.838 C 294.491 388.434,296.224 388.034,296.814 387.951 C 297.853 387.804,299.973 387.215,301.111 386.757 C 301.417 386.634,301.917 386.502,302.222 386.463 C 302.948 386.371,308.538 384.478,309.050 384.152 C 309.267 384.014,309.528 383.886,309.630 383.869 C 310.477 383.725,313.224 382.832,313.519 382.605 C 313.722 382.447,314.514 382.117,315.278 381.871 C 316.042 381.625,316.667 381.260,316.667 381.061 C 316.667 380.861,316.819 380.791,317.005 380.906 C 317.192 381.022,317.400 380.953,317.468 380.754 C 317.537 380.555,317.932 380.341,318.346 380.278 C 318.760 380.215,319.844 379.745,320.753 379.232 C 321.663 378.720,322.907 378.058,323.519 377.762 C 324.130 377.466,324.749 377.056,324.894 376.852 C 325.039 376.648,325.289 376.476,325.449 376.468 C 325.959 376.445,327.550 375.482,328.889 374.385 C 336.381 368.248,338.219 362.529,334.674 356.392 C 334.064 355.337,329.347 350.741,328.874 350.741 C 328.678 350.741,328.519 350.601,328.519 350.430 C 328.519 349.265,314.082 342.112,310.122 341.314 C 309.749 341.239,308.278 340.764,306.852 340.260 C 305.426 339.755,303.509 339.137,302.593 338.887 C 301.676 338.637,300.509 338.302,300.000 338.143 C 297.512 337.365,294.907 336.676,294.074 336.575 C 293.565 336.513,292.981 336.364,292.778 336.243 C 292.453 336.051,291.133 335.712,287.778 334.960 C 286.242 334.615,279.510 333.322,278.519 333.180 C 278.009 333.108,277.343 332.956,277.037 332.843 C 276.416 332.613,273.826 332.205,271.852 332.026 C 271.139 331.961,270.556 331.876,270.556 331.838 C 270.556 331.800,270.056 331.705,269.444 331.628 C 266.268 331.227,265.681 331.143,265.000 330.992 C 264.194 330.813,261.263 330.401,259.236 330.182 C 256.469 329.884,254.095 329.603,250.429 329.140 L 246.598 328.658 245.616 329.977 C 245.076 330.703,244.544 331.380,244.434 331.481 C 244.325 331.583,243.672 332.557,242.983 333.645 C 242.294 334.733,241.550 335.816,241.329 336.052 C 241.107 336.288,240.279 337.470,239.488 338.679 C 238.697 339.888,237.897 341.055,237.710 341.272 C 237.268 341.785,235.116 344.929,233.806 346.977 C 233.240 347.861,232.393 349.027,231.923 349.570 C 230.786 350.880,229.936 352.510,230.279 352.718 C 230.431 352.811,232.306 353.342,234.444 353.899 C 236.583 354.456,238.515 355.055,238.738 355.230 C 238.960 355.406,239.252 355.439,239.386 355.305 C 239.520 355.171,239.630 355.238,239.630 355.454 C 239.630 355.669,240.030 355.946,240.520 356.069 C 241.395 356.289,245.250 359.107,245.496 359.707 C 245.565 359.875,245.867 360.259,246.167 360.558 C 248.196 362.588,246.644 365.860,242.713 367.840 C 238.183 370.121,229.875 372.637,225.229 373.136 C 224.133 373.253,223.133 373.413,223.007 373.490 C 222.881 373.568,221.861 373.741,220.741 373.874 C 219.620 374.007,218.454 374.180,218.148 374.258 C 217.843 374.336,215.676 374.509,213.333 374.643 C 210.991 374.777,208.491 374.948,207.778 375.024 C 205.875 375.225,192.518 375.211,189.074 375.004 C 182.671 374.619,176.891 374.080,173.519 373.553 C 165.534 372.307,163.466 371.881,161.667 371.114 C 161.064 370.857,159.427 370.387,158.519 370.209 C 157.719 370.053,151.566 366.659,150.753 365.926 C 148.473 363.869,148.700 360.575,151.268 358.453 C 153.061 356.972,163.513 352.963,165.582 352.963 C 165.907 352.963,166.271 352.865,166.390 352.745 C 166.628 352.508,163.250 347.366,162.386 346.648 C 162.092 346.405,161.852 346.052,161.852 345.865 C 161.852 345.678,161.687 345.323,161.485 345.077 C 160.151 343.453,157.987 340.517,157.638 339.858 C 157.409 339.427,156.673 338.324,156.001 337.407 C 152.045 332.005,151.111 330.686,151.111 330.504 C 151.111 329.262,149.727 328.710,147.222 328.954 " stroke="none" fill="#f4741c" fill-rule="evenodd"></path><path id="path1" d="M143.333 18.704 C 142.824 18.995,142.574 19.233,142.778 19.233 C 142.981 19.233,143.565 18.995,144.074 18.704 C 144.583 18.413,144.833 18.174,144.630 18.174 C 144.426 18.174,143.843 18.413,143.333 18.704 M128.056 26.508 C 126.671 27.259,126.755 27.572,128.148 26.852 C 128.759 26.536,129.259 26.198,129.259 26.102 C 129.259 25.863,129.219 25.877,128.056 26.508 M317.037 80.142 C 317.037 80.539,318.139 82.593,318.352 82.593 C 318.454 82.593,318.262 82.051,317.925 81.389 C 317.238 80.037,317.037 79.755,317.037 80.142 M232.963 87.153 C 232.963 87.245,233.575 87.786,234.323 88.357 C 235.070 88.927,235.565 89.205,235.423 88.973 C 235.130 88.499,232.963 86.896,232.963 87.153 M67.130 127.963 C 67.135 128.778,67.210 129.068,67.299 128.607 C 67.388 128.146,67.384 127.479,67.292 127.125 C 67.199 126.771,67.126 127.148,67.130 127.963 M250.741 165.556 C 250.325 166.370,250.068 167.037,250.170 167.037 C 250.272 167.037,250.695 166.370,251.111 165.556 C 251.527 164.741,251.784 164.074,251.682 164.074 C 251.580 164.074,251.156 164.741,250.741 165.556 M242.384 177.083 C 241.622 177.894,241.530 178.099,242.075 177.769 C 242.747 177.362,243.928 175.926,243.591 175.926 C 243.525 175.926,242.982 176.447,242.384 177.083 M157.778 181.227 C 157.778 181.291,158.319 181.832,158.981 182.431 L 160.185 183.519 159.097 182.315 C 158.083 181.193,157.778 180.941,157.778 181.227 M162.222 184.951 C 162.222 185.235,164.866 187.110,165.032 186.943 C 165.124 186.851,164.530 186.332,163.711 185.790 C 162.892 185.248,162.222 184.870,162.222 184.951 M91.739 204.625 C 92.078 205.335,92.421 205.851,92.501 205.771 C 92.671 205.601,91.546 203.333,91.293 203.333 C 91.199 203.333,91.400 203.915,91.739 204.625 M126.838 264.352 C 127.409 265.218,127.947 265.926,128.033 265.926 C 128.300 265.926,126.882 263.672,126.326 263.212 C 126.037 262.973,126.267 263.486,126.838 264.352 M258.714 279.488 C 257.772 280.836,257.067 282.005,257.147 282.085 C 257.227 282.165,258.070 281.062,259.020 279.634 C 261.208 276.343,260.987 276.237,258.714 279.488 M157.407 308.519 C 157.843 309.130,158.282 309.630,158.384 309.630 C 158.486 309.630,158.213 309.130,157.778 308.519 C 157.343 307.907,156.903 307.407,156.801 307.407 C 156.700 307.407,156.972 307.907,157.407 308.519 M238.073 309.352 C 236.997 310.785,236.570 311.481,236.767 311.481 C 236.847 311.481,237.450 310.731,238.108 309.815 C 239.474 307.913,239.445 307.525,238.073 309.352 M230.741 319.630 C 230.306 320.241,230.033 320.741,230.135 320.741 C 230.237 320.741,230.676 320.241,231.111 319.630 C 231.546 319.019,231.819 318.519,231.717 318.519 C 231.615 318.519,231.176 319.019,230.741 319.630 M157.409 339.475 C 157.410 339.662,157.841 340.315,158.366 340.926 L 159.320 342.037 158.484 340.741 C 157.411 339.078,157.407 339.074,157.409 339.475 M227.222 372.593 C 226.214 372.849,226.197 372.877,227.037 372.893 C 227.546 372.903,228.296 372.768,228.704 372.593 C 229.617 372.200,228.764 372.200,227.222 372.593 M218.611 398.403 C 218.968 398.497,219.551 398.497,219.907 398.403 C 220.264 398.310,219.972 398.234,219.259 398.234 C 218.546 398.234,218.255 398.310,218.611 398.403 " stroke="none" fill="#f8741c" fill-rule="evenodd"></path><path id="path2" d="M143.333 18.704 C 142.824 18.995,142.574 19.233,142.778 19.233 C 142.981 19.233,143.565 18.995,144.074 18.704 C 144.583 18.413,144.833 18.174,144.630 18.174 C 144.426 18.174,143.843 18.413,143.333 18.704 M128.056 26.508 C 126.671 27.259,126.755 27.572,128.148 26.852 C 128.759 26.536,129.259 26.198,129.259 26.102 C 129.259 25.863,129.219 25.877,128.056 26.508 M317.037 80.142 C 317.037 80.539,318.139 82.593,318.352 82.593 C 318.454 82.593,318.262 82.051,317.925 81.389 C 317.238 80.037,317.037 79.755,317.037 80.142 M232.963 87.153 C 232.963 87.245,233.575 87.786,234.323 88.357 C 235.070 88.927,235.565 89.205,235.423 88.973 C 235.130 88.499,232.963 86.896,232.963 87.153 M67.130 127.963 C 67.135 128.778,67.210 129.068,67.299 128.607 C 67.388 128.146,67.384 127.479,67.292 127.125 C 67.199 126.771,67.126 127.148,67.130 127.963 M250.741 165.556 C 250.325 166.370,250.068 167.037,250.170 167.037 C 250.272 167.037,250.695 166.370,251.111 165.556 C 251.527 164.741,251.784 164.074,251.682 164.074 C 251.580 164.074,251.156 164.741,250.741 165.556 M242.384 177.083 C 241.622 177.894,241.530 178.099,242.075 177.769 C 242.747 177.362,243.928 175.926,243.591 175.926 C 243.525 175.926,242.982 176.447,242.384 177.083 M157.778 181.227 C 157.778 181.291,158.319 181.832,158.981 182.431 L 160.185 183.519 159.097 182.315 C 158.083 181.193,157.778 180.941,157.778 181.227 M162.222 184.951 C 162.222 185.235,164.866 187.110,165.032 186.943 C 165.124 186.851,164.530 186.332,163.711 185.790 C 162.892 185.248,162.222 184.870,162.222 184.951 M91.739 204.625 C 92.078 205.335,92.421 205.851,92.501 205.771 C 92.671 205.601,91.546 203.333,91.293 203.333 C 91.199 203.333,91.400 203.915,91.739 204.625 M126.838 264.352 C 127.409 265.218,127.947 265.926,128.033 265.926 C 128.300 265.926,126.882 263.672,126.326 263.212 C 126.037 262.973,126.267 263.486,126.838 264.352 M258.714 279.488 C 257.772 280.836,257.067 282.005,257.147 282.085 C 257.227 282.165,258.070 281.062,259.020 279.634 C 261.208 276.343,260.987 276.237,258.714 279.488 M157.407 308.519 C 157.843 309.130,158.282 309.630,158.384 309.630 C 158.486 309.630,158.213 309.130,157.778 308.519 C 157.343 307.907,156.903 307.407,156.801 307.407 C 156.700 307.407,156.972 307.907,157.407 308.519 M238.073 309.352 C 236.997 310.785,236.570 311.481,236.767 311.481 C 236.847 311.481,237.450 310.731,238.108 309.815 C 239.474 307.913,239.445 307.525,238.073 309.352 M230.741 319.630 C 230.306 320.241,230.033 320.741,230.135 320.741 C 230.237 320.741,230.676 320.241,231.111 319.630 C 231.546 319.019,231.819 318.519,231.717 318.519 C 231.615 318.519,231.176 319.019,230.741 319.630 M157.409 339.475 C 157.410 339.662,157.841 340.315,158.366 340.926 L 159.320 342.037 158.484 340.741 C 157.411 339.078,157.407 339.074,157.409 339.475 M227.222 372.593 C 226.214 372.849,226.197 372.877,227.037 372.893 C 227.546 372.903,228.296 372.768,228.704 372.593 C 229.617 372.200,228.764 372.200,227.222 372.593 M218.611 398.403 C 218.968 398.497,219.551 398.497,219.907 398.403 C 220.264 398.310,219.972 398.234,219.259 398.234 C 218.546 398.234,218.255 398.310,218.611 398.403 " stroke="none" fill="#f8741c" fill-rule="evenodd"></path><path id="path3" d="M143.333 18.704 C 142.824 18.995,142.574 19.233,142.778 19.233 C 142.981 19.233,143.565 18.995,144.074 18.704 C 144.583 18.413,144.833 18.174,144.630 18.174 C 144.426 18.174,143.843 18.413,143.333 18.704 M128.056 26.508 C 126.671 27.259,126.755 27.572,128.148 26.852 C 128.759 26.536,129.259 26.198,129.259 26.102 C 129.259 25.863,129.219 25.877,128.056 26.508 M317.037 80.142 C 317.037 80.539,318.139 82.593,318.352 82.593 C 318.454 82.593,318.262 82.051,317.925 81.389 C 317.238 80.037,317.037 79.755,317.037 80.142 M232.963 87.153 C 232.963 87.245,233.575 87.786,234.323 88.357 C 235.070 88.927,235.565 89.205,235.423 88.973 C 235.130 88.499,232.963 86.896,232.963 87.153 M67.130 127.963 C 67.135 128.778,67.210 129.068,67.299 128.607 C 67.388 128.146,67.384 127.479,67.292 127.125 C 67.199 126.771,67.126 127.148,67.130 127.963 M250.741 165.556 C 250.325 166.370,250.068 167.037,250.170 167.037 C 250.272 167.037,250.695 166.370,251.111 165.556 C 251.527 164.741,251.784 164.074,251.682 164.074 C 251.580 164.074,251.156 164.741,250.741 165.556 M242.384 177.083 C 241.622 177.894,241.530 178.099,242.075 177.769 C 242.747 177.362,243.928 175.926,243.591 175.926 C 243.525 175.926,242.982 176.447,242.384 177.083 M157.778 181.227 C 157.778 181.291,158.319 181.832,158.981 182.431 L 160.185 183.519 159.097 182.315 C 158.083 181.193,157.778 180.941,157.778 181.227 M162.222 184.951 C 162.222 185.235,164.866 187.110,165.032 186.943 C 165.124 186.851,164.530 186.332,163.711 185.790 C 162.892 185.248,162.222 184.870,162.222 184.951 M91.739 204.625 C 92.078 205.335,92.421 205.851,92.501 205.771 C 92.671 205.601,91.546 203.333,91.293 203.333 C 91.199 203.333,91.400 203.915,91.739 204.625 M126.838 264.352 C 127.409 265.218,127.947 265.926,128.033 265.926 C 128.300 265.926,126.882 263.672,126.326 263.212 C 126.037 262.973,126.267 263.486,126.838 264.352 M258.714 279.488 C 257.772 280.836,257.067 282.005,257.147 282.085 C 257.227 282.165,258.070 281.062,259.020 279.634 C 261.208 276.343,260.987 276.237,258.714 279.488 M157.407 308.519 C 157.843 309.130,158.282 309.630,158.384 309.630 C 158.486 309.630,158.213 309.130,157.778 308.519 C 157.343 307.907,156.903 307.407,156.801 307.407 C 156.700 307.407,156.972 307.907,157.407 308.519 M238.073 309.352 C 236.997 310.785,236.570 311.481,236.767 311.481 C 236.847 311.481,237.450 310.731,238.108 309.815 C 239.474 307.913,239.445 307.525,238.073 309.352 M230.741 319.630 C 230.306 320.241,230.033 320.741,230.135 320.741 C 230.237 320.741,230.676 320.241,231.111 319.630 C 231.546 319.019,231.819 318.519,231.717 318.519 C 231.615 318.519,231.176 319.019,230.741 319.630 M157.409 339.475 C 157.410 339.662,157.841 340.315,158.366 340.926 L 159.320 342.037 158.484 340.741 C 157.411 339.078,157.407 339.074,157.409 339.475 M227.222 372.593 C 226.214 372.849,226.197 372.877,227.037 372.893 C 227.546 372.903,228.296 372.768,228.704 372.593 C 229.617 372.200,228.764 372.200,227.222 372.593 M218.611 398.403 C 218.968 398.497,219.551 398.497,219.907 398.403 C 220.264 398.310,219.972 398.234,219.259 398.234 C 218.546 398.234,218.255 398.310,218.611 398.403 " stroke="none" fill="#f8741c" fill-rule="evenodd"></path><path id="path4" d="M143.333 18.704 C 142.824 18.995,142.574 19.233,142.778 19.233 C 142.981 19.233,143.565 18.995,144.074 18.704 C 144.583 18.413,144.833 18.174,144.630 18.174 C 144.426 18.174,143.843 18.413,143.333 18.704 M128.056 26.508 C 126.671 27.259,126.755 27.572,128.148 26.852 C 128.759 26.536,129.259 26.198,129.259 26.102 C 129.259 25.863,129.219 25.877,128.056 26.508 M317.037 80.142 C 317.037 80.539,318.139 82.593,318.352 82.593 C 318.454 82.593,318.262 82.051,317.925 81.389 C 317.238 80.037,317.037 79.755,317.037 80.142 M232.963 87.153 C 232.963 87.245,233.575 87.786,234.323 88.357 C 235.070 88.927,235.565 89.205,235.423 88.973 C 235.130 88.499,232.963 86.896,232.963 87.153 M67.130 127.963 C 67.135 128.778,67.210 129.068,67.299 128.607 C 67.388 128.146,67.384 127.479,67.292 127.125 C 67.199 126.771,67.126 127.148,67.130 127.963 M250.741 165.556 C 250.325 166.370,250.068 167.037,250.170 167.037 C 250.272 167.037,250.695 166.370,251.111 165.556 C 251.527 164.741,251.784 164.074,251.682 164.074 C 251.580 164.074,251.156 164.741,250.741 165.556 M242.384 177.083 C 241.622 177.894,241.530 178.099,242.075 177.769 C 242.747 177.362,243.928 175.926,243.591 175.926 C 243.525 175.926,242.982 176.447,242.384 177.083 M157.778 181.227 C 157.778 181.291,158.319 181.832,158.981 182.431 L 160.185 183.519 159.097 182.315 C 158.083 181.193,157.778 180.941,157.778 181.227 M162.222 184.951 C 162.222 185.235,164.866 187.110,165.032 186.943 C 165.124 186.851,164.530 186.332,163.711 185.790 C 162.892 185.248,162.222 184.870,162.222 184.951 M91.739 204.625 C 92.078 205.335,92.421 205.851,92.501 205.771 C 92.671 205.601,91.546 203.333,91.293 203.333 C 91.199 203.333,91.400 203.915,91.739 204.625 M126.838 264.352 C 127.409 265.218,127.947 265.926,128.033 265.926 C 128.300 265.926,126.882 263.672,126.326 263.212 C 126.037 262.973,126.267 263.486,126.838 264.352 M258.714 279.488 C 257.772 280.836,257.067 282.005,257.147 282.085 C 257.227 282.165,258.070 281.062,259.020 279.634 C 261.208 276.343,260.987 276.237,258.714 279.488 M157.407 308.519 C 157.843 309.130,158.282 309.630,158.384 309.630 C 158.486 309.630,158.213 309.130,157.778 308.519 C 157.343 307.907,156.903 307.407,156.801 307.407 C 156.700 307.407,156.972 307.907,157.407 308.519 M238.073 309.352 C 236.997 310.785,236.570 311.481,236.767 311.481 C 236.847 311.481,237.450 310.731,238.108 309.815 C 239.474 307.913,239.445 307.525,238.073 309.352 M230.741 319.630 C 230.306 320.241,230.033 320.741,230.135 320.741 C 230.237 320.741,230.676 320.241,231.111 319.630 C 231.546 319.019,231.819 318.519,231.717 318.519 C 231.615 318.519,231.176 319.019,230.741 319.630 M157.409 339.475 C 157.410 339.662,157.841 340.315,158.366 340.926 L 159.320 342.037 158.484 340.741 C 157.411 339.078,157.407 339.074,157.409 339.475 M227.222 372.593 C 226.214 372.849,226.197 372.877,227.037 372.893 C 227.546 372.903,228.296 372.768,228.704 372.593 C 229.617 372.200,228.764 372.200,227.222 372.593 M218.611 398.403 C 218.968 398.497,219.551 398.497,219.907 398.403 C 220.264 398.310,219.972 398.234,219.259 398.234 C 218.546 398.234,218.255 398.310,218.611 398.403 " stroke="none" fill="#f8741c" fill-rule="evenodd"></path></g></svg>