<svg id="svg" version="1.1" xmlns="http://www.w3.org/2000/svg" xmlns:xlink="http://www.w3.org/1999/xlink" width="400" height="400" viewBox="0, 0, 400,400"><g id="svgg"><path id="path0" d="M187.759 0.131 C 187.668 0.217,185.759 0.397,183.519 0.532 C 181.278 0.666,178.278 0.942,176.852 1.145 C 175.426 1.349,173.676 1.581,172.963 1.662 C 169.127 2.097,167.022 2.423,163.333 3.153 C 157.524 4.302,155.231 4.810,150.741 5.941 C 148.194 6.582,145.778 7.172,145.370 7.251 C 144.450 7.431,140.763 8.638,136.833 10.044 C 135.193 10.631,133.677 11.111,133.464 11.111 C 133.251 11.111,132.509 11.397,131.816 11.746 C 131.123 12.095,130.271 12.426,129.924 12.482 C 128.672 12.682,120.085 16.239,115.479 18.466 C 112.890 19.717,110.598 20.741,110.386 20.741 C 110.174 20.741,110.000 20.935,110.000 21.173 C 110.000 21.410,109.902 21.507,109.783 21.388 C 109.664 21.269,108.622 21.720,107.468 22.391 C 106.314 23.062,104.995 23.726,104.537 23.868 C 104.079 24.009,103.704 24.248,103.704 24.400 C 103.704 24.552,103.120 24.905,102.407 25.185 C 101.694 25.465,101.111 25.829,101.111 25.995 C 101.111 26.161,100.778 26.296,100.370 26.296 C 99.963 26.296,99.630 26.463,99.630 26.667 C 99.630 26.870,99.405 27.037,99.131 27.037 C 98.856 27.037,98.248 27.370,97.778 27.778 C 97.308 28.185,96.775 28.519,96.594 28.519 C 96.413 28.519,96.064 28.690,95.818 28.899 C 95.572 29.108,94.537 29.802,93.519 30.442 C 90.754 32.179,85.397 35.701,85.185 35.921 C 85.083 36.027,84.256 36.613,83.346 37.223 C 82.436 37.834,81.406 38.583,81.058 38.889 C 79.846 39.951,79.289 40.370,79.094 40.370 C 78.913 40.370,78.561 40.641,76.659 42.245 C 76.282 42.564,75.522 43.147,74.970 43.542 C 74.419 43.936,73.191 44.926,72.242 45.741 C 71.293 46.556,69.858 47.773,69.054 48.446 C 66.775 50.354,59.628 57.040,57.891 58.889 C 57.030 59.806,54.653 62.303,52.607 64.439 C 50.562 66.575,48.889 68.436,48.889 68.574 C 48.889 68.712,48.347 69.402,47.685 70.108 C 45.804 72.112,44.713 73.383,43.326 75.185 C 42.620 76.102,41.916 76.907,41.762 76.975 C 41.608 77.043,41.481 77.335,41.481 77.623 C 41.481 77.912,41.356 78.149,41.204 78.151 C 41.051 78.152,40.509 78.765,40.000 79.513 C 39.491 80.261,38.904 81.051,38.695 81.270 C 38.487 81.488,37.694 82.583,36.933 83.704 C 34.701 86.991,34.289 87.567,33.827 88.055 C 33.159 88.758,30.741 92.825,30.741 93.244 C 30.741 93.447,30.511 93.803,30.231 94.036 C 29.749 94.436,27.099 98.795,25.367 102.037 C 24.931 102.852,23.986 104.602,23.267 105.926 C 20.914 110.255,20.219 111.662,20.296 111.944 C 20.337 112.097,20.204 112.222,20.000 112.222 C 19.796 112.222,19.630 112.394,19.630 112.604 C 19.630 112.815,19.354 113.606,19.017 114.364 C 18.680 115.121,18.430 115.866,18.461 116.019 C 18.493 116.171,18.342 116.296,18.126 116.296 C 17.911 116.296,17.837 116.463,17.963 116.667 C 18.089 116.870,18.032 117.037,17.836 117.037 C 17.410 117.037,16.634 119.103,16.944 119.413 C 17.063 119.532,17.000 119.630,16.803 119.630 C 16.606 119.630,16.232 120.255,15.971 121.019 C 15.710 121.782,15.186 123.074,14.807 123.889 C 13.846 125.953,12.201 130.096,12.082 130.751 C 12.027 131.051,11.730 131.880,11.421 132.593 C 9.254 137.596,5.025 152.907,3.493 161.296 C 3.158 163.130,2.816 164.963,2.733 165.370 C 2.590 166.068,1.996 169.955,1.657 172.407 C 1.573 173.019,1.410 174.502,1.295 175.703 C 1.181 176.904,1.019 177.997,0.937 178.130 C 0.249 179.243,-0.141 209.847,0.448 216.481 C 0.735 219.714,1.392 225.564,1.634 227.037 C 1.718 227.546,1.891 228.796,2.020 229.815 C 2.148 230.833,2.412 232.500,2.606 233.519 C 2.800 234.537,3.308 237.204,3.735 239.444 C 4.370 242.776,5.090 245.813,6.456 250.926 C 6.510 251.130,6.655 251.546,6.778 251.852 C 6.901 252.157,7.082 252.907,7.179 253.519 C 7.276 254.130,7.637 255.630,7.982 256.852 C 8.326 258.074,8.690 259.449,8.791 259.907 C 8.893 260.366,9.150 260.741,9.364 260.741 C 9.578 260.741,9.656 260.837,9.538 260.956 C 9.338 261.156,10.683 265.560,11.452 267.222 C 11.640 267.630,12.079 268.796,12.428 269.815 C 13.474 272.875,14.722 275.996,15.722 278.054 C 16.242 279.122,16.667 280.102,16.667 280.231 C 16.667 280.360,17.455 282.069,18.420 284.029 C 19.384 285.989,20.187 287.676,20.205 287.778 C 20.269 288.137,21.284 290.188,21.489 290.370 C 21.603 290.472,22.418 291.972,23.300 293.704 C 24.182 295.435,25.293 297.519,25.770 298.333 C 26.247 299.148,26.892 300.315,27.205 300.926 C 28.022 302.522,31.136 307.559,31.441 307.778 C 31.583 307.880,32.191 308.754,32.794 309.722 C 33.396 310.689,34.024 311.480,34.189 311.481 C 34.353 311.481,34.384 311.649,34.258 311.854 C 34.131 312.060,34.287 312.327,34.604 312.449 C 34.921 312.571,35.095 312.809,34.990 312.979 C 34.885 313.149,35.094 313.460,35.455 313.670 C 35.816 313.880,35.988 314.057,35.837 314.063 C 35.686 314.069,35.802 314.366,36.094 314.722 C 36.386 315.079,37.421 316.454,38.394 317.778 C 39.367 319.102,40.334 320.308,40.544 320.457 C 40.789 320.632,40.793 320.733,40.556 320.741 C 40.345 320.747,40.364 320.870,40.599 321.024 C 40.826 321.174,41.882 322.449,42.945 323.857 C 45.965 327.860,47.460 329.592,53.889 336.533 C 58.654 341.678,61.278 344.227,67.758 350.000 C 72.395 354.131,73.378 354.963,74.310 355.545 C 74.893 355.909,75.704 356.525,76.111 356.914 C 77.111 357.869,82.264 361.742,84.595 363.290 C 85.633 363.979,86.537 364.687,86.605 364.864 C 86.673 365.041,86.859 365.185,87.018 365.185 C 87.178 365.185,88.918 366.269,90.884 367.593 C 92.851 368.917,94.611 370.000,94.796 370.000 C 94.981 370.000,95.360 370.208,95.637 370.463 C 96.342 371.109,97.430 371.784,98.511 372.246 C 99.016 372.462,99.516 372.754,99.622 372.894 C 99.856 373.203,100.820 373.756,104.444 375.661 C 105.972 376.464,107.738 377.433,108.369 377.815 C 109.000 378.196,109.625 378.400,109.758 378.267 C 109.891 378.134,110.000 378.219,110.000 378.457 C 110.000 378.694,110.164 378.889,110.365 378.889 C 110.566 378.889,112.608 379.780,114.902 380.868 C 117.197 381.957,119.741 383.139,120.556 383.495 C 121.370 383.851,122.704 384.442,123.519 384.808 C 124.333 385.174,125.667 385.680,126.481 385.933 C 127.296 386.186,128.171 386.558,128.426 386.760 C 128.681 386.962,128.889 387.033,128.889 386.918 C 128.889 386.803,129.616 387.030,130.504 387.423 C 131.392 387.816,132.434 388.193,132.819 388.263 C 133.204 388.332,134.153 388.663,134.929 388.999 C 136.776 389.799,145.587 392.512,147.044 392.729 C 147.353 392.775,147.783 392.923,148.001 393.057 C 148.218 393.191,148.965 393.398,149.661 393.517 C 150.357 393.635,152.093 394.039,153.519 394.414 C 156.808 395.280,162.191 396.382,165.556 396.878 C 166.472 397.014,167.556 397.189,167.963 397.268 C 169.488 397.564,173.168 398.078,173.704 398.070 C 174.009 398.065,176.636 398.332,179.542 398.663 C 187.602 399.580,191.734 399.815,199.815 399.815 C 207.014 399.815,216.451 399.433,216.967 399.121 C 217.196 398.982,219.070 398.774,224.074 398.333 C 226.285 398.138,228.976 397.793,230.054 397.567 C 230.534 397.467,231.621 397.307,232.471 397.211 C 233.321 397.116,235.155 396.784,236.545 396.475 C 237.936 396.165,239.574 395.838,240.185 395.747 C 241.539 395.547,245.752 394.551,248.519 393.779 C 250.928 393.106,250.921 393.108,252.631 392.830 C 254.397 392.544,262.281 390.009,262.870 389.538 C 263.125 389.335,263.333 389.256,263.333 389.363 C 263.333 389.470,264.458 389.152,265.833 388.656 C 267.208 388.159,268.583 387.684,268.889 387.600 C 271.754 386.810,282.260 382.355,282.634 381.771 C 282.759 381.577,282.925 381.460,283.004 381.511 C 283.415 381.777,297.156 374.904,297.778 374.122 C 297.880 373.994,298.178 373.845,298.442 373.791 C 298.880 373.701,301.787 371.928,302.222 371.485 C 302.529 371.173,303.810 370.429,305.185 369.765 C 305.898 369.421,306.986 368.769,307.603 368.317 C 308.220 367.865,310.720 366.160,313.159 364.528 C 315.597 362.896,318.060 361.126,318.630 360.595 C 319.201 360.064,319.786 359.630,319.930 359.630 C 320.075 359.630,320.642 359.213,321.191 358.704 C 321.741 358.194,322.279 357.778,322.388 357.778 C 322.498 357.778,322.963 357.455,323.423 357.059 C 323.883 356.664,324.660 355.998,325.149 355.578 C 325.639 355.158,326.142 354.815,326.267 354.815 C 326.392 354.815,327.244 354.106,328.161 353.241 C 329.077 352.375,330.657 351.005,331.673 350.196 C 335.723 346.967,349.399 332.804,354.717 326.331 C 357.599 322.823,357.123 323.441,360.305 319.074 C 361.789 317.037,363.242 315.079,363.535 314.722 C 363.827 314.366,363.954 314.074,363.816 314.074 C 363.678 314.074,363.986 313.616,364.501 313.056 C 365.016 312.495,365.830 311.370,366.310 310.556 C 366.790 309.741,367.294 308.991,367.430 308.889 C 367.776 308.629,371.111 303.377,371.111 303.092 C 371.111 302.963,371.753 301.840,372.538 300.596 C 375.195 296.384,382.963 281.140,382.963 280.137 C 382.963 280.045,383.463 278.900,384.074 277.593 C 384.685 276.286,385.185 275.074,385.185 274.900 C 385.185 274.726,385.532 273.866,385.956 272.989 C 386.379 272.112,386.787 271.122,386.861 270.790 C 387.024 270.063,389.543 262.716,389.989 261.667 C 390.358 260.798,392.236 254.592,392.423 253.624 C 392.493 253.259,392.635 252.824,392.737 252.658 C 392.840 252.492,393.003 251.951,393.098 251.456 C 393.194 250.961,393.545 249.556,393.879 248.333 C 394.739 245.183,396.337 237.488,396.877 233.897 C 396.998 233.086,397.159 232.324,397.234 232.203 C 397.371 231.982,397.995 227.190,398.294 224.074 C 398.381 223.157,398.546 221.991,398.659 221.481 C 399.527 217.573,400.044 197.302,399.485 189.074 C 399.347 187.037,399.160 184.138,399.069 182.632 C 398.979 181.126,398.826 179.626,398.730 179.299 C 398.633 178.971,398.456 177.537,398.336 176.111 C 398.216 174.685,398.063 173.102,397.995 172.593 C 397.691 170.324,397.367 168.248,397.155 167.222 C 397.029 166.611,396.874 165.778,396.811 165.370 C 396.478 163.226,395.508 158.243,395.196 157.077 C 395.000 156.342,394.330 153.574,393.707 150.926 C 393.084 148.278,392.431 145.853,392.256 145.537 C 392.081 145.221,391.721 143.971,391.455 142.759 C 391.189 141.547,390.795 140.433,390.578 140.283 C 390.362 140.134,390.293 140.009,390.424 140.006 C 390.555 140.003,389.751 137.375,388.637 134.167 C 385.463 125.028,385.210 124.352,384.625 123.459 C 384.322 122.997,384.074 122.382,384.074 122.092 C 384.074 121.424,381.830 116.558,381.382 116.255 C 381.198 116.130,381.042 115.880,381.035 115.699 C 381.005 114.921,378.010 108.380,377.407 107.778 C 377.306 107.676,376.935 107.009,376.585 106.296 C 376.234 105.583,375.187 103.667,374.257 102.037 C 373.327 100.407,372.469 98.782,372.351 98.426 C 372.233 98.069,371.989 97.778,371.809 97.778 C 371.629 97.778,371.481 97.540,371.481 97.249 C 371.481 96.958,371.273 96.492,371.019 96.215 C 370.397 95.536,369.705 94.436,369.273 93.441 C 369.078 92.991,368.587 92.291,368.183 91.886 C 367.778 91.482,367.162 90.600,366.814 89.927 C 366.127 88.599,364.918 86.811,364.141 85.977 C 363.872 85.688,363.375 85.017,363.035 84.485 C 362.162 83.119,357.156 76.365,355.867 74.815 C 355.274 74.102,354.670 73.350,354.524 73.145 C 354.378 72.939,353.759 72.180,353.148 71.458 C 352.537 70.736,351.204 69.161,350.185 67.959 C 346.421 63.516,331.567 48.993,327.963 46.233 C 327.352 45.765,326.632 45.213,326.362 45.006 C 326.093 44.799,325.592 44.380,325.249 44.074 C 323.044 42.112,311.976 34.074,311.479 34.074 C 311.277 34.074,311.108 33.949,311.104 33.796 C 311.100 33.644,310.253 33.019,309.221 32.407 C 308.190 31.796,307.151 31.119,306.913 30.902 C 306.676 30.685,305.340 29.851,303.945 29.050 C 301.482 27.635,300.573 27.096,298.056 25.563 C 296.984 24.910,292.886 22.752,289.259 20.931 C 286.795 19.694,280.961 17.017,280.370 16.853 C 280.269 16.825,279.185 16.342,277.963 15.780 C 273.497 13.727,272.596 13.333,272.365 13.333 C 272.236 13.333,270.138 12.584,267.704 11.669 C 265.270 10.754,262.916 9.924,262.473 9.825 C 260.763 9.444,258.325 8.708,258.148 8.519 C 257.986 8.345,257.333 8.141,253.889 7.189 C 253.481 7.077,252.815 6.934,252.407 6.873 C 252.000 6.811,251.625 6.719,251.574 6.668 C 251.523 6.616,251.356 6.546,251.204 6.512 C 251.051 6.478,250.343 6.254,249.630 6.015 C 248.917 5.775,247.750 5.488,247.037 5.375 C 246.324 5.263,244.741 4.931,243.519 4.638 C 237.191 3.119,219.603 0.424,215.539 0.350 C 204.065 0.140,187.886 0.013,187.759 0.131 M203.704 69.686 C 208.865 70.959,212.970 76.045,213.524 81.852 C 213.553 82.157,213.606 111.197,213.640 146.384 L 213.704 210.360 251.759 210.458 L 289.815 210.556 291.917 211.541 C 298.974 214.849,301.959 223.248,298.495 230.049 C 296.599 233.770,293.766 236.102,289.815 237.192 C 287.512 237.828,198.480 237.962,196.405 237.333 C 191.535 235.858,187.366 231.671,186.337 227.222 C 185.984 225.693,185.956 82.028,186.309 80.225 C 187.877 72.219,195.426 67.645,203.704 69.686 " stroke="none" fill="#f4741c" fill-rule="evenodd"></path><path id="path1" d="M317.778 38.283 C 317.778 38.385,318.278 38.824,318.889 39.259 C 319.500 39.694,320.000 39.967,320.000 39.865 C 320.000 39.763,319.500 39.324,318.889 38.889 C 318.278 38.454,317.778 38.181,317.778 38.283 M333.044 50.734 C 333.296 51.137,333.752 51.563,334.057 51.680 C 334.363 51.797,334.212 51.467,333.723 50.946 C 332.657 49.812,332.423 49.738,333.044 50.734 M60.912 55.625 C 59.605 56.991,59.455 57.232,60.394 56.458 C 61.587 55.475,63.182 53.704,62.874 53.704 C 62.806 53.704,61.923 54.568,60.912 55.625 M339.668 56.936 C 342.087 59.504,342.569 59.976,343.729 60.911 C 344.224 61.310,343.133 60.102,341.304 58.226 C 339.475 56.350,337.909 54.815,337.824 54.815 C 337.740 54.815,338.570 55.769,339.668 56.936 M55.822 60.659 C 54.657 61.836,53.704 62.907,53.704 63.038 C 53.704 63.270,54.410 62.592,57.017 59.857 C 59.088 57.685,58.127 58.329,55.822 60.659 M189.797 73.426 L 188.333 75.000 189.907 73.536 C 191.371 72.174,191.652 71.852,191.371 71.852 C 191.311 71.852,190.603 72.560,189.797 73.426 M210.212 74.109 C 210.808 74.841,211.371 75.378,211.462 75.301 C 211.554 75.224,211.066 74.625,210.378 73.970 L 209.128 72.778 210.212 74.109 M186.107 153.333 C 186.107 192.546,186.151 208.588,186.204 188.981 C 186.257 169.375,186.257 137.292,186.204 117.685 C 186.151 98.079,186.107 114.120,186.107 153.333 M213.514 146.481 C 213.514 181.722,213.558 196.084,213.611 178.397 C 213.664 160.709,213.664 131.876,213.611 114.323 C 213.558 96.769,213.514 111.241,213.514 146.481 M367.104 90.556 C 367.336 91.065,367.670 91.481,367.846 91.481 C 368.021 91.481,367.892 91.065,367.559 90.556 C 367.225 90.046,366.891 89.630,366.817 89.630 C 366.743 89.630,366.872 90.046,367.104 90.556 M399.716 194.074 C 399.716 194.787,399.792 195.079,399.885 194.722 C 399.978 194.366,399.978 193.782,399.885 193.426 C 399.792 193.069,399.716 193.361,399.716 194.074 M295.741 214.444 C 296.536 215.259,297.271 215.926,297.373 215.926 C 297.474 215.926,296.907 215.259,296.111 214.444 C 295.315 213.630,294.581 212.963,294.479 212.963 C 294.377 212.963,294.945 213.630,295.741 214.444 M376.111 294.074 C 375.795 294.685,375.620 295.185,375.722 295.185 C 375.824 295.185,376.165 294.685,376.481 294.074 C 376.797 293.463,376.973 292.963,376.871 292.963 C 376.769 292.963,376.427 293.463,376.111 294.074 M38.889 318.889 C 39.324 319.500,39.763 320.000,39.865 320.000 C 39.967 320.000,39.694 319.500,39.259 318.889 C 38.824 318.278,38.385 317.778,38.283 317.778 C 38.181 317.778,38.454 318.278,38.889 318.889 M349.980 331.759 L 348.704 333.148 350.093 331.872 C 351.385 330.684,351.652 330.370,351.369 330.370 C 351.307 330.370,350.682 330.995,349.980 331.759 M53.614 336.481 C 54.037 337.093,55.185 338.343,56.163 339.259 C 57.745 340.741,57.699 340.658,55.755 338.519 C 52.829 335.298,52.721 335.195,53.614 336.481 M340.733 341.759 L 337.222 345.370 340.833 341.859 C 344.187 338.598,344.613 338.148,344.345 338.148 C 344.290 338.148,342.665 339.773,340.733 341.759 M61.481 344.630 C 62.173 345.343,62.821 345.926,62.923 345.926 C 63.025 345.926,62.543 345.343,61.852 344.630 C 61.161 343.917,60.512 343.333,60.410 343.333 C 60.308 343.333,60.790 343.917,61.481 344.630 M66.007 348.716 C 66.561 349.299,67.081 349.701,67.162 349.610 C 67.243 349.519,66.790 349.042,66.155 348.550 L 65.000 347.656 66.007 348.716 M330.185 351.343 C 329.519 351.909,329.383 352.135,329.845 351.905 C 330.524 351.568,331.798 350.349,331.434 350.384 C 331.358 350.391,330.796 350.822,330.185 351.343 " stroke="none" fill="#f8741c" fill-rule="evenodd"></path><path id="path2" d="M317.778 38.283 C 317.778 38.385,318.278 38.824,318.889 39.259 C 319.500 39.694,320.000 39.967,320.000 39.865 C 320.000 39.763,319.500 39.324,318.889 38.889 C 318.278 38.454,317.778 38.181,317.778 38.283 M333.044 50.734 C 333.296 51.137,333.752 51.563,334.057 51.680 C 334.363 51.797,334.212 51.467,333.723 50.946 C 332.657 49.812,332.423 49.738,333.044 50.734 M60.912 55.625 C 59.605 56.991,59.455 57.232,60.394 56.458 C 61.587 55.475,63.182 53.704,62.874 53.704 C 62.806 53.704,61.923 54.568,60.912 55.625 M339.668 56.936 C 342.087 59.504,342.569 59.976,343.729 60.911 C 344.224 61.310,343.133 60.102,341.304 58.226 C 339.475 56.350,337.909 54.815,337.824 54.815 C 337.740 54.815,338.570 55.769,339.668 56.936 M55.822 60.659 C 54.657 61.836,53.704 62.907,53.704 63.038 C 53.704 63.270,54.410 62.592,57.017 59.857 C 59.088 57.685,58.127 58.329,55.822 60.659 M189.797 73.426 L 188.333 75.000 189.907 73.536 C 191.371 72.174,191.652 71.852,191.371 71.852 C 191.311 71.852,190.603 72.560,189.797 73.426 M210.212 74.109 C 210.808 74.841,211.371 75.378,211.462 75.301 C 211.554 75.224,211.066 74.625,210.378 73.970 L 209.128 72.778 210.212 74.109 M186.107 153.333 C 186.107 192.546,186.151 208.588,186.204 188.981 C 186.257 169.375,186.257 137.292,186.204 117.685 C 186.151 98.079,186.107 114.120,186.107 153.333 M213.514 146.481 C 213.514 181.722,213.558 196.084,213.611 178.397 C 213.664 160.709,213.664 131.876,213.611 114.323 C 213.558 96.769,213.514 111.241,213.514 146.481 M367.104 90.556 C 367.336 91.065,367.670 91.481,367.846 91.481 C 368.021 91.481,367.892 91.065,367.559 90.556 C 367.225 90.046,366.891 89.630,366.817 89.630 C 366.743 89.630,366.872 90.046,367.104 90.556 M399.716 194.074 C 399.716 194.787,399.792 195.079,399.885 194.722 C 399.978 194.366,399.978 193.782,399.885 193.426 C 399.792 193.069,399.716 193.361,399.716 194.074 M295.741 214.444 C 296.536 215.259,297.271 215.926,297.373 215.926 C 297.474 215.926,296.907 215.259,296.111 214.444 C 295.315 213.630,294.581 212.963,294.479 212.963 C 294.377 212.963,294.945 213.630,295.741 214.444 M376.111 294.074 C 375.795 294.685,375.620 295.185,375.722 295.185 C 375.824 295.185,376.165 294.685,376.481 294.074 C 376.797 293.463,376.973 292.963,376.871 292.963 C 376.769 292.963,376.427 293.463,376.111 294.074 M38.889 318.889 C 39.324 319.500,39.763 320.000,39.865 320.000 C 39.967 320.000,39.694 319.500,39.259 318.889 C 38.824 318.278,38.385 317.778,38.283 317.778 C 38.181 317.778,38.454 318.278,38.889 318.889 M349.980 331.759 L 348.704 333.148 350.093 331.872 C 351.385 330.684,351.652 330.370,351.369 330.370 C 351.307 330.370,350.682 330.995,349.980 331.759 M53.614 336.481 C 54.037 337.093,55.185 338.343,56.163 339.259 C 57.745 340.741,57.699 340.658,55.755 338.519 C 52.829 335.298,52.721 335.195,53.614 336.481 M340.733 341.759 L 337.222 345.370 340.833 341.859 C 344.187 338.598,344.613 338.148,344.345 338.148 C 344.290 338.148,342.665 339.773,340.733 341.759 M61.481 344.630 C 62.173 345.343,62.821 345.926,62.923 345.926 C 63.025 345.926,62.543 345.343,61.852 344.630 C 61.161 343.917,60.512 343.333,60.410 343.333 C 60.308 343.333,60.790 343.917,61.481 344.630 M66.007 348.716 C 66.561 349.299,67.081 349.701,67.162 349.610 C 67.243 349.519,66.790 349.042,66.155 348.550 L 65.000 347.656 66.007 348.716 M330.185 351.343 C 329.519 351.909,329.383 352.135,329.845 351.905 C 330.524 351.568,331.798 350.349,331.434 350.384 C 331.358 350.391,330.796 350.822,330.185 351.343 " stroke="none" fill="#f8741c" fill-rule="evenodd"></path><path id="path3" d="M317.778 38.283 C 317.778 38.385,318.278 38.824,318.889 39.259 C 319.500 39.694,320.000 39.967,320.000 39.865 C 320.000 39.763,319.500 39.324,318.889 38.889 C 318.278 38.454,317.778 38.181,317.778 38.283 M333.044 50.734 C 333.296 51.137,333.752 51.563,334.057 51.680 C 334.363 51.797,334.212 51.467,333.723 50.946 C 332.657 49.812,332.423 49.738,333.044 50.734 M60.912 55.625 C 59.605 56.991,59.455 57.232,60.394 56.458 C 61.587 55.475,63.182 53.704,62.874 53.704 C 62.806 53.704,61.923 54.568,60.912 55.625 M339.668 56.936 C 342.087 59.504,342.569 59.976,343.729 60.911 C 344.224 61.310,343.133 60.102,341.304 58.226 C 339.475 56.350,337.909 54.815,337.824 54.815 C 337.740 54.815,338.570 55.769,339.668 56.936 M55.822 60.659 C 54.657 61.836,53.704 62.907,53.704 63.038 C 53.704 63.270,54.410 62.592,57.017 59.857 C 59.088 57.685,58.127 58.329,55.822 60.659 M189.797 73.426 L 188.333 75.000 189.907 73.536 C 191.371 72.174,191.652 71.852,191.371 71.852 C 191.311 71.852,190.603 72.560,189.797 73.426 M210.212 74.109 C 210.808 74.841,211.371 75.378,211.462 75.301 C 211.554 75.224,211.066 74.625,210.378 73.970 L 209.128 72.778 210.212 74.109 M186.107 153.333 C 186.107 192.546,186.151 208.588,186.204 188.981 C 186.257 169.375,186.257 137.292,186.204 117.685 C 186.151 98.079,186.107 114.120,186.107 153.333 M213.514 146.481 C 213.514 181.722,213.558 196.084,213.611 178.397 C 213.664 160.709,213.664 131.876,213.611 114.323 C 213.558 96.769,213.514 111.241,213.514 146.481 M367.104 90.556 C 367.336 91.065,367.670 91.481,367.846 91.481 C 368.021 91.481,367.892 91.065,367.559 90.556 C 367.225 90.046,366.891 89.630,366.817 89.630 C 366.743 89.630,366.872 90.046,367.104 90.556 M399.716 194.074 C 399.716 194.787,399.792 195.079,399.885 194.722 C 399.978 194.366,399.978 193.782,399.885 193.426 C 399.792 193.069,399.716 193.361,399.716 194.074 M295.741 214.444 C 296.536 215.259,297.271 215.926,297.373 215.926 C 297.474 215.926,296.907 215.259,296.111 214.444 C 295.315 213.630,294.581 212.963,294.479 212.963 C 294.377 212.963,294.945 213.630,295.741 214.444 M376.111 294.074 C 375.795 294.685,375.620 295.185,375.722 295.185 C 375.824 295.185,376.165 294.685,376.481 294.074 C 376.797 293.463,376.973 292.963,376.871 292.963 C 376.769 292.963,376.427 293.463,376.111 294.074 M38.889 318.889 C 39.324 319.500,39.763 320.000,39.865 320.000 C 39.967 320.000,39.694 319.500,39.259 318.889 C 38.824 318.278,38.385 317.778,38.283 317.778 C 38.181 317.778,38.454 318.278,38.889 318.889 M349.980 331.759 L 348.704 333.148 350.093 331.872 C 351.385 330.684,351.652 330.370,351.369 330.370 C 351.307 330.370,350.682 330.995,349.980 331.759 M53.614 336.481 C 54.037 337.093,55.185 338.343,56.163 339.259 C 57.745 340.741,57.699 340.658,55.755 338.519 C 52.829 335.298,52.721 335.195,53.614 336.481 M340.733 341.759 L 337.222 345.370 340.833 341.859 C 344.187 338.598,344.613 338.148,344.345 338.148 C 344.290 338.148,342.665 339.773,340.733 341.759 M61.481 344.630 C 62.173 345.343,62.821 345.926,62.923 345.926 C 63.025 345.926,62.543 345.343,61.852 344.630 C 61.161 343.917,60.512 343.333,60.410 343.333 C 60.308 343.333,60.790 343.917,61.481 344.630 M66.007 348.716 C 66.561 349.299,67.081 349.701,67.162 349.610 C 67.243 349.519,66.790 349.042,66.155 348.550 L 65.000 347.656 66.007 348.716 M330.185 351.343 C 329.519 351.909,329.383 352.135,329.845 351.905 C 330.524 351.568,331.798 350.349,331.434 350.384 C 331.358 350.391,330.796 350.822,330.185 351.343 " stroke="none" fill="#f8741c" fill-rule="evenodd"></path><path id="path4" d="M317.778 38.283 C 317.778 38.385,318.278 38.824,318.889 39.259 C 319.500 39.694,320.000 39.967,320.000 39.865 C 320.000 39.763,319.500 39.324,318.889 38.889 C 318.278 38.454,317.778 38.181,317.778 38.283 M333.044 50.734 C 333.296 51.137,333.752 51.563,334.057 51.680 C 334.363 51.797,334.212 51.467,333.723 50.946 C 332.657 49.812,332.423 49.738,333.044 50.734 M60.912 55.625 C 59.605 56.991,59.455 57.232,60.394 56.458 C 61.587 55.475,63.182 53.704,62.874 53.704 C 62.806 53.704,61.923 54.568,60.912 55.625 M339.668 56.936 C 342.087 59.504,342.569 59.976,343.729 60.911 C 344.224 61.310,343.133 60.102,341.304 58.226 C 339.475 56.350,337.909 54.815,337.824 54.815 C 337.740 54.815,338.570 55.769,339.668 56.936 M55.822 60.659 C 54.657 61.836,53.704 62.907,53.704 63.038 C 53.704 63.270,54.410 62.592,57.017 59.857 C 59.088 57.685,58.127 58.329,55.822 60.659 M189.797 73.426 L 188.333 75.000 189.907 73.536 C 191.371 72.174,191.652 71.852,191.371 71.852 C 191.311 71.852,190.603 72.560,189.797 73.426 M210.212 74.109 C 210.808 74.841,211.371 75.378,211.462 75.301 C 211.554 75.224,211.066 74.625,210.378 73.970 L 209.128 72.778 210.212 74.109 M186.107 153.333 C 186.107 192.546,186.151 208.588,186.204 188.981 C 186.257 169.375,186.257 137.292,186.204 117.685 C 186.151 98.079,186.107 114.120,186.107 153.333 M213.514 146.481 C 213.514 181.722,213.558 196.084,213.611 178.397 C 213.664 160.709,213.664 131.876,213.611 114.323 C 213.558 96.769,213.514 111.241,213.514 146.481 M367.104 90.556 C 367.336 91.065,367.670 91.481,367.846 91.481 C 368.021 91.481,367.892 91.065,367.559 90.556 C 367.225 90.046,366.891 89.630,366.817 89.630 C 366.743 89.630,366.872 90.046,367.104 90.556 M399.716 194.074 C 399.716 194.787,399.792 195.079,399.885 194.722 C 399.978 194.366,399.978 193.782,399.885 193.426 C 399.792 193.069,399.716 193.361,399.716 194.074 M295.741 214.444 C 296.536 215.259,297.271 215.926,297.373 215.926 C 297.474 215.926,296.907 215.259,296.111 214.444 C 295.315 213.630,294.581 212.963,294.479 212.963 C 294.377 212.963,294.945 213.630,295.741 214.444 M376.111 294.074 C 375.795 294.685,375.620 295.185,375.722 295.185 C 375.824 295.185,376.165 294.685,376.481 294.074 C 376.797 293.463,376.973 292.963,376.871 292.963 C 376.769 292.963,376.427 293.463,376.111 294.074 M38.889 318.889 C 39.324 319.500,39.763 320.000,39.865 320.000 C 39.967 320.000,39.694 319.500,39.259 318.889 C 38.824 318.278,38.385 317.778,38.283 317.778 C 38.181 317.778,38.454 318.278,38.889 318.889 M349.980 331.759 L 348.704 333.148 350.093 331.872 C 351.385 330.684,351.652 330.370,351.369 330.370 C 351.307 330.370,350.682 330.995,349.980 331.759 M53.614 336.481 C 54.037 337.093,55.185 338.343,56.163 339.259 C 57.745 340.741,57.699 340.658,55.755 338.519 C 52.829 335.298,52.721 335.195,53.614 336.481 M340.733 341.759 L 337.222 345.370 340.833 341.859 C 344.187 338.598,344.613 338.148,344.345 338.148 C 344.290 338.148,342.665 339.773,340.733 341.759 M61.481 344.630 C 62.173 345.343,62.821 345.926,62.923 345.926 C 63.025 345.926,62.543 345.343,61.852 344.630 C 61.161 343.917,60.512 343.333,60.410 343.333 C 60.308 343.333,60.790 343.917,61.481 344.630 M66.007 348.716 C 66.561 349.299,67.081 349.701,67.162 349.610 C 67.243 349.519,66.790 349.042,66.155 348.550 L 65.000 347.656 66.007 348.716 M330.185 351.343 C 329.519 351.909,329.383 352.135,329.845 351.905 C 330.524 351.568,331.798 350.349,331.434 350.384 C 331.358 350.391,330.796 350.822,330.185 351.343 " stroke="none" fill="#f8741c" fill-rule="evenodd"></path></g></svg>