<svg id="svg" version="1.1" xmlns="http://www.w3.org/2000/svg" xmlns:xlink="http://www.w3.org/1999/xlink" width="400" height="400" viewBox="0, 0, 400,400"><g id="svgg"><path id="path0" d="M194.396 123.126 C 194.321 123.195,193.593 123.344,192.778 123.456 C 191.024 123.697,189.257 123.962,187.222 124.290 C 184.620 124.709,178.192 126.919,175.754 128.232 C 175.354 128.447,174.188 129.068,173.162 129.610 C 162.386 135.311,151.564 147.660,149.450 156.667 C 149.378 156.972,149.074 157.806,148.775 158.519 C 148.274 159.713,147.675 162.376,147.609 163.704 C 147.594 164.009,147.483 164.426,147.363 164.630 C 146.626 165.880,146.933 176.315,147.789 179.074 C 147.978 179.685,148.234 180.852,148.357 181.667 C 148.480 182.481,148.872 183.815,149.228 184.630 C 149.584 185.444,149.981 186.538,150.112 187.059 C 150.242 187.580,150.635 188.663,150.985 189.466 C 151.335 190.269,151.639 191.009,151.660 191.111 C 151.681 191.213,152.093 192.130,152.575 193.148 C 153.058 194.167,153.474 195.083,153.501 195.185 C 153.528 195.287,154.506 197.287,155.676 199.630 C 157.759 203.803,159.092 206.285,161.444 210.370 C 162.089 211.491,162.714 212.699,162.833 213.056 C 162.952 213.412,163.197 213.704,163.377 213.704 C 163.556 213.704,163.704 213.883,163.704 214.102 C 163.704 214.321,164.494 215.696,165.460 217.157 C 166.425 218.619,167.333 220.097,167.477 220.442 C 167.987 221.664,172.966 228.993,173.426 229.198 C 173.579 229.265,173.704 229.557,173.704 229.846 C 173.704 230.134,173.898 230.370,174.136 230.370 C 174.373 230.370,174.456 230.482,174.320 230.618 C 174.184 230.754,174.303 231.129,174.586 231.451 C 174.868 231.774,176.557 234.120,178.340 236.667 C 180.122 239.213,181.725 241.352,181.901 241.420 C 182.078 241.488,182.222 241.701,182.222 241.894 C 182.222 242.279,186.249 247.796,186.850 248.235 C 187.055 248.385,187.088 248.510,186.924 248.513 C 186.760 248.516,187.385 249.450,188.313 250.590 C 189.241 251.729,190.000 252.772,190.000 252.908 C 190.000 253.044,190.380 253.571,190.845 254.078 C 191.310 254.585,192.435 256.082,193.345 257.405 C 194.255 258.728,195.125 259.978,195.277 260.183 C 195.429 260.388,196.218 261.464,197.030 262.574 C 199.201 265.543,199.278 265.547,201.454 262.777 C 202.495 261.454,203.241 260.370,203.113 260.370 C 202.986 260.370,203.274 260.043,203.755 259.642 C 204.236 259.241,204.468 258.908,204.269 258.901 C 204.071 258.894,204.282 258.627,204.739 258.308 C 205.195 257.988,205.472 257.572,205.355 257.382 C 205.237 257.192,205.302 257.037,205.499 257.037 C 205.842 257.037,207.220 255.261,209.954 251.296 C 210.656 250.278,211.349 249.361,211.493 249.259 C 211.638 249.157,212.663 247.741,213.771 246.111 C 215.838 243.073,218.457 239.363,219.000 238.704 C 219.167 238.500,219.586 237.890,219.930 237.349 C 221.529 234.833,224.287 230.914,224.537 230.802 C 224.690 230.735,224.815 230.443,224.815 230.154 C 224.815 229.866,224.953 229.630,225.123 229.630 C 225.292 229.630,225.660 229.171,225.940 228.611 C 226.220 228.051,226.691 227.301,226.986 226.944 C 227.281 226.588,227.402 226.296,227.255 226.296 C 227.108 226.296,227.556 225.588,228.251 224.722 C 228.946 223.856,229.631 222.898,229.772 222.593 C 230.124 221.831,230.546 221.147,233.539 216.481 C 234.193 215.463,235.099 213.838,235.553 212.870 C 236.007 211.903,236.526 211.111,236.707 211.111 C 236.889 211.111,237.037 210.792,237.037 210.401 C 237.037 210.011,237.193 209.636,237.383 209.568 C 237.781 209.426,243.724 197.949,244.776 195.291 C 245.162 194.316,246.013 192.352,246.668 190.926 C 248.711 186.476,249.933 183.089,250.933 179.099 C 251.597 176.454,251.884 167.799,251.394 165.185 C 251.261 164.472,251.083 163.472,250.999 162.963 C 250.461 159.713,247.287 151.694,246.041 150.437 C 245.774 150.167,245.556 149.748,245.556 149.505 C 245.556 149.063,242.663 144.723,240.556 142.002 C 239.244 140.308,233.798 134.819,233.414 134.804 C 233.268 134.799,232.404 134.132,231.495 133.323 C 230.586 132.514,229.641 131.852,229.396 131.852 C 229.151 131.852,228.895 131.711,228.827 131.539 C 228.564 130.872,220.540 126.988,217.593 126.101 C 216.370 125.733,215.204 125.378,215.000 125.312 C 214.796 125.245,213.755 125.033,212.686 124.840 C 211.617 124.647,210.606 124.405,210.438 124.301 C 210.271 124.198,209.312 124.002,208.308 123.867 C 207.303 123.732,206.148 123.539,205.741 123.438 C 204.871 123.222,194.596 122.940,194.396 123.126 M203.704 150.824 C 204.009 150.908,204.825 151.109,205.516 151.270 C 206.207 151.432,207.374 151.826,208.109 152.147 C 208.843 152.468,209.569 152.699,209.722 152.661 C 209.875 152.624,210.000 152.741,210.000 152.923 C 210.000 153.104,210.405 153.355,210.900 153.479 C 211.395 153.603,212.020 153.924,212.289 154.191 C 212.558 154.459,213.051 154.833,213.385 155.024 C 214.644 155.743,218.380 159.502,219.249 160.926 C 219.747 161.741,220.286 162.463,220.447 162.531 C 220.609 162.599,220.741 162.964,220.741 163.342 C 220.741 163.721,220.895 164.125,221.083 164.242 C 221.492 164.494,222.589 167.695,222.840 169.366 C 222.939 170.020,223.142 171.139,223.293 171.852 C 224.488 177.503,221.352 186.889,216.872 191.069 C 215.865 192.009,214.573 193.223,214.002 193.768 C 213.430 194.312,212.963 194.685,212.963 194.596 C 212.963 194.508,212.317 194.843,211.527 195.342 C 209.072 196.891,207.340 197.584,205.000 197.951 C 204.185 198.079,203.269 198.278,202.963 198.392 C 201.013 199.123,194.342 198.432,190.835 197.137 C 188.264 196.187,181.481 191.686,181.481 190.929 C 181.481 190.792,180.917 189.986,180.228 189.136 C 176.145 184.108,174.239 175.949,175.672 169.630 C 176.055 167.944,177.082 165.022,177.447 164.582 C 177.679 164.303,177.752 164.074,177.609 164.074 C 177.467 164.074,178.113 162.983,179.045 161.649 C 179.978 160.315,180.741 159.162,180.741 159.086 C 180.741 158.943,183.637 156.087,184.579 155.300 C 184.869 155.058,185.207 154.960,185.331 155.084 C 185.454 155.208,185.556 155.114,185.556 154.877 C 185.556 154.639,185.797 154.444,186.093 154.444 C 186.388 154.444,186.793 154.153,186.993 153.796 C 187.192 153.440,187.409 153.199,187.474 153.261 C 187.539 153.324,188.593 152.931,189.815 152.389 C 191.037 151.847,192.370 151.334,192.778 151.248 C 193.185 151.163,194.102 150.954,194.815 150.785 C 196.070 150.487,202.577 150.516,203.704 150.824 M176.888 251.754 C 176.827 251.815,176.044 251.939,175.148 252.030 C 173.443 252.203,171.326 252.504,169.444 252.840 C 168.833 252.949,167.917 253.084,167.407 253.141 C 166.898 253.198,164.981 253.610,163.148 254.057 C 161.315 254.503,159.548 254.926,159.223 254.995 C 156.261 255.625,148.148 259.052,148.148 259.673 C 148.148 259.853,147.921 260.000,147.644 260.000 C 145.971 260.000,143.494 264.061,143.978 266.010 C 144.822 269.409,154.006 274.427,161.667 275.675 C 162.278 275.775,163.528 276.028,164.444 276.238 C 165.361 276.448,166.811 276.698,167.665 276.794 C 168.520 276.890,169.354 277.049,169.517 277.147 C 169.776 277.302,170.838 277.456,175.185 277.969 C 189.546 279.666,211.408 279.952,219.074 278.544 C 220.093 278.357,221.176 278.208,221.481 278.212 C 221.787 278.216,222.620 278.135,223.333 278.032 C 224.046 277.929,225.630 277.713,226.852 277.553 C 229.240 277.238,229.579 277.178,229.722 277.041 C 229.773 276.992,230.315 276.897,230.926 276.829 C 231.537 276.761,232.620 276.587,233.333 276.441 C 234.046 276.296,234.844 276.135,235.106 276.082 C 252.941 272.529,260.646 263.794,250.047 259.145 C 249.512 258.911,248.991 258.630,248.889 258.523 C 248.580 258.196,244.353 256.543,243.825 256.543 C 243.555 256.543,243.333 256.404,243.333 256.235 C 243.333 256.065,243.208 255.963,243.056 256.009 C 242.903 256.054,241.891 255.797,240.807 255.437 C 239.723 255.077,238.057 254.614,237.104 254.408 C 234.827 253.917,231.898 253.342,230.741 253.160 C 230.231 253.080,229.815 252.990,229.815 252.960 C 229.815 252.859,228.339 252.632,226.112 252.389 C 224.889 252.256,223.803 252.095,223.698 252.031 C 223.593 251.968,222.401 251.803,221.048 251.665 L 218.589 251.414 216.505 254.503 C 215.360 256.202,213.845 258.381,213.139 259.345 L 211.855 261.098 212.872 261.324 C 213.431 261.449,214.222 261.651,214.630 261.774 C 215.037 261.898,215.479 261.971,215.613 261.937 C 215.746 261.903,216.058 262.120,216.306 262.419 C 216.554 262.718,216.968 262.963,217.225 262.963 C 217.963 262.963,218.975 264.790,218.745 265.708 C 218.447 266.895,214.593 268.492,210.556 269.101 C 209.537 269.255,208.454 269.458,208.148 269.552 C 206.007 270.216,191.985 269.898,188.039 269.097 C 182.667 268.007,179.606 266.443,179.838 264.907 C 179.876 264.653,179.928 264.290,179.954 264.101 C 180.013 263.665,184.383 261.571,185.867 261.268 C 186.872 261.063,187.122 261.530,182.222 254.456 C 180.272 251.640,178.101 250.541,176.888 251.754 " stroke="none" fill="#f4741c" fill-rule="evenodd"></path><path id="path1" d="M183.333 156.296 C 182.864 156.704,182.646 157.037,182.849 157.037 C 183.052 157.037,183.520 156.704,183.889 156.296 C 184.258 155.889,184.476 155.556,184.373 155.556 C 184.271 155.556,183.803 155.889,183.333 156.296 M181.502 191.019 C 181.513 191.171,182.055 191.702,182.706 192.199 L 183.889 193.101 182.801 191.921 C 181.669 190.693,181.468 190.553,181.502 191.019 M199.825 264.799 C 199.704 264.993,199.320 265.052,198.970 264.929 C 198.449 264.746,198.418 264.797,198.799 265.207 C 199.189 265.627,199.367 265.606,199.897 265.077 C 200.245 264.729,200.420 264.444,200.286 264.444 C 200.153 264.444,199.945 264.604,199.825 264.799 " stroke="none" fill="#f8741c" fill-rule="evenodd"></path><path id="path2" d="M183.333 156.296 C 182.864 156.704,182.646 157.037,182.849 157.037 C 183.052 157.037,183.520 156.704,183.889 156.296 C 184.258 155.889,184.476 155.556,184.373 155.556 C 184.271 155.556,183.803 155.889,183.333 156.296 M181.502 191.019 C 181.513 191.171,182.055 191.702,182.706 192.199 L 183.889 193.101 182.801 191.921 C 181.669 190.693,181.468 190.553,181.502 191.019 M199.825 264.799 C 199.704 264.993,199.320 265.052,198.970 264.929 C 198.449 264.746,198.418 264.797,198.799 265.207 C 199.189 265.627,199.367 265.606,199.897 265.077 C 200.245 264.729,200.420 264.444,200.286 264.444 C 200.153 264.444,199.945 264.604,199.825 264.799 " stroke="none" fill="#f8741c" fill-rule="evenodd"></path><path id="path3" d="M183.333 156.296 C 182.864 156.704,182.646 157.037,182.849 157.037 C 183.052 157.037,183.520 156.704,183.889 156.296 C 184.258 155.889,184.476 155.556,184.373 155.556 C 184.271 155.556,183.803 155.889,183.333 156.296 M181.502 191.019 C 181.513 191.171,182.055 191.702,182.706 192.199 L 183.889 193.101 182.801 191.921 C 181.669 190.693,181.468 190.553,181.502 191.019 M199.825 264.799 C 199.704 264.993,199.320 265.052,198.970 264.929 C 198.449 264.746,198.418 264.797,198.799 265.207 C 199.189 265.627,199.367 265.606,199.897 265.077 C 200.245 264.729,200.420 264.444,200.286 264.444 C 200.153 264.444,199.945 264.604,199.825 264.799 " stroke="none" fill="#f8741c" fill-rule="evenodd"></path><path id="path4" d="M183.333 156.296 C 182.864 156.704,182.646 157.037,182.849 157.037 C 183.052 157.037,183.520 156.704,183.889 156.296 C 184.258 155.889,184.476 155.556,184.373 155.556 C 184.271 155.556,183.803 155.889,183.333 156.296 M181.502 191.019 C 181.513 191.171,182.055 191.702,182.706 192.199 L 183.889 193.101 182.801 191.921 C 181.669 190.693,181.468 190.553,181.502 191.019 M199.825 264.799 C 199.704 264.993,199.320 265.052,198.970 264.929 C 198.449 264.746,198.418 264.797,198.799 265.207 C 199.189 265.627,199.367 265.606,199.897 265.077 C 200.245 264.729,200.420 264.444,200.286 264.444 C 200.153 264.444,199.945 264.604,199.825 264.799 " stroke="none" fill="#f8741c" fill-rule="evenodd"></path></g></svg>