<svg id="svg" version="1.1" xmlns="http://www.w3.org/2000/svg" xmlns:xlink="http://www.w3.org/1999/xlink" width="400" height="400" viewBox="0, 0, 400,400"><g id="svgg"><path id="path0" d="M104.495 8.011 C 100.061 9.158,94.431 12.615,88.902 17.587 C 85.791 20.384,50.183 56.109,49.628 56.990 C 49.323 57.473,48.866 58.086,48.611 58.352 C 48.356 58.618,48.148 58.960,48.148 59.111 C 48.148 59.262,47.922 59.649,47.646 59.971 C 42.464 66.011,40.319 80.415,42.429 95.000 C 42.547 95.815,42.814 97.231,43.023 98.148 C 43.232 99.065,43.485 100.302,43.586 100.898 C 43.686 101.494,44.267 103.661,44.875 105.713 C 45.484 107.765,46.123 109.944,46.295 110.556 C 46.467 111.167,47.051 112.833,47.593 114.259 C 48.134 115.685,48.815 117.519,49.106 118.333 C 49.397 119.148,49.801 120.104,50.003 120.458 C 50.205 120.812,50.370 121.267,50.370 121.471 C 50.370 122.200,58.532 139.001,59.780 140.840 C 60.266 141.556,60.881 142.743,61.147 143.478 C 61.413 144.213,61.745 144.815,61.886 144.815 C 62.027 144.815,62.403 145.467,62.722 146.265 C 63.041 147.062,63.475 147.822,63.687 147.953 C 63.899 148.083,64.426 149.014,64.859 150.021 C 65.292 151.028,65.773 151.852,65.928 151.852 C 66.083 151.852,66.308 152.144,66.428 152.500 C 66.547 152.856,66.858 153.471,67.119 153.866 C 70.136 158.438,71.111 159.981,71.111 160.185 C 71.111 160.569,74.880 166.098,75.235 166.235 C 75.411 166.302,75.556 166.594,75.556 166.883 C 75.556 167.171,75.722 167.407,75.926 167.407 C 76.130 167.407,76.255 167.532,76.205 167.685 C 76.091 168.032,79.421 173.069,80.181 173.701 C 80.489 173.956,80.741 174.380,80.741 174.644 C 80.741 174.908,80.877 175.179,81.044 175.247 C 81.211 175.315,82.074 176.454,82.961 177.778 C 83.848 179.102,84.674 180.269,84.796 180.370 C 84.917 180.472,85.333 181.051,85.720 181.657 C 86.526 182.922,86.891 183.386,88.072 184.647 C 88.540 185.147,88.814 185.556,88.682 185.556 C 88.471 185.556,89.559 186.985,91.290 188.981 C 91.599 189.338,91.855 189.755,91.858 189.907 C 91.861 190.060,92.375 190.765,92.999 191.474 C 93.624 192.183,95.238 194.224,96.586 196.011 C 97.935 197.798,99.171 199.259,99.334 199.259 C 99.496 199.259,99.630 199.439,99.630 199.659 C 99.630 200.016,102.227 203.387,105.349 207.081 C 105.972 207.818,106.852 208.914,107.305 209.516 C 107.758 210.119,108.508 211.028,108.972 211.537 C 109.936 212.596,112.068 215.136,113.591 217.040 C 115.398 219.299,116.086 220.115,117.037 221.128 C 117.546 221.670,118.875 223.180,119.989 224.483 C 123.602 228.706,123.870 229.011,125.278 230.485 C 126.042 231.285,126.667 232.011,126.667 232.098 C 126.667 232.186,127.417 233.018,128.333 233.948 C 129.250 234.878,130.000 235.702,130.000 235.780 C 130.000 235.858,130.833 236.773,131.852 237.813 C 132.870 238.854,133.704 239.750,133.704 239.806 C 133.704 240.324,153.584 260.399,157.186 263.519 C 158.362 264.537,160.281 266.287,161.449 267.407 C 162.618 268.528,164.228 270.007,165.028 270.694 C 165.827 271.381,167.585 272.965,168.933 274.212 C 170.282 275.460,171.782 276.822,172.266 277.238 C 172.751 277.654,174.427 279.113,175.989 280.479 C 177.552 281.845,178.927 282.963,179.045 282.963 C 179.163 282.963,179.570 283.255,179.950 283.611 C 182.428 285.937,184.419 287.669,185.164 288.148 C 185.639 288.454,186.383 289.037,186.817 289.444 C 187.498 290.084,192.075 293.913,193.148 294.741 C 193.489 295.003,200.184 300.329,202.778 302.399 C 205.114 304.265,205.865 304.815,206.074 304.815 C 206.263 304.815,207.282 305.617,208.660 306.852 C 208.888 307.056,209.741 307.716,210.556 308.320 C 211.370 308.924,212.240 309.590,212.487 309.801 C 213.633 310.779,214.103 311.127,216.507 312.788 C 217.919 313.764,220.270 315.452,221.732 316.540 C 223.193 317.628,224.528 318.519,224.698 318.519 C 224.868 318.519,225.423 318.894,225.930 319.352 C 227.052 320.366,229.757 322.222,230.113 322.222 C 230.254 322.222,230.692 322.514,231.085 322.870 C 232.387 324.052,232.938 324.455,234.346 325.253 C 235.113 325.689,236.635 326.643,237.728 327.374 C 238.821 328.105,239.985 328.870,240.315 329.074 C 240.644 329.278,241.625 329.911,242.494 330.481 C 243.363 331.051,244.079 331.384,244.085 331.221 C 244.092 331.059,244.266 331.218,244.474 331.574 C 244.682 331.931,245.093 332.222,245.389 332.222 C 245.684 332.222,245.926 332.389,245.926 332.593 C 245.926 332.796,246.086 332.963,246.282 332.963 C 246.478 332.963,248.144 333.867,249.986 334.972 C 251.827 336.076,253.336 336.868,253.339 336.731 C 253.342 336.594,253.467 336.665,253.617 336.888 C 253.995 337.453,257.315 339.259,257.976 339.259 C 258.274 339.259,258.519 339.391,258.519 339.552 C 258.519 339.714,259.060 340.102,259.722 340.414 C 260.384 340.727,262.551 341.841,264.537 342.890 C 266.523 343.940,268.151 344.677,268.154 344.529 C 268.157 344.380,268.282 344.426,268.432 344.630 C 268.581 344.833,269.454 345.355,270.370 345.789 C 274.675 347.827,278.246 349.446,278.464 349.458 C 278.596 349.466,280.120 350.027,281.852 350.706 C 283.583 351.384,285.167 351.966,285.370 351.998 C 285.574 352.031,285.946 352.186,286.197 352.343 C 287.056 352.879,293.422 354.804,293.723 354.618 C 293.888 354.516,294.135 354.613,294.271 354.834 C 294.408 355.055,294.747 355.148,295.026 355.041 C 295.304 354.935,295.619 354.988,295.725 355.159 C 295.897 355.438,297.298 355.816,299.444 356.164 C 300.527 356.340,302.719 356.769,303.148 356.890 C 304.677 357.319,305.564 357.487,306.852 357.591 C 307.667 357.657,308.333 357.739,308.333 357.774 C 308.333 357.912,312.225 358.178,315.370 358.253 C 319.765 358.359,324.563 357.940,326.822 357.254 C 327.825 356.950,328.783 356.787,328.952 356.891 C 329.121 356.995,329.259 356.894,329.259 356.667 C 329.259 356.439,329.421 356.352,329.618 356.474 C 329.815 356.596,330.679 356.356,331.539 355.940 C 332.399 355.525,333.317 355.185,333.579 355.185 C 333.842 355.185,334.590 354.860,335.243 354.464 C 335.895 354.067,336.566 353.827,336.733 353.930 C 336.900 354.033,337.037 353.931,337.037 353.704 C 337.037 353.476,337.178 353.377,337.351 353.484 C 337.524 353.591,337.987 353.392,338.380 353.043 C 338.773 352.693,339.715 352.089,340.473 351.701 C 341.231 351.312,341.852 350.854,341.852 350.682 C 341.852 350.511,342.037 350.370,342.263 350.370 C 342.903 350.370,379.425 314.173,382.842 310.152 C 383.692 309.152,384.741 307.924,385.173 307.424 C 385.606 306.924,386.320 305.924,386.761 305.202 C 387.201 304.480,387.819 303.686,388.133 303.438 C 388.447 303.190,388.571 302.981,388.408 302.975 C 388.246 302.968,388.629 302.213,389.259 301.296 C 389.890 300.380,390.311 299.630,390.194 299.630 C 390.078 299.630,390.223 299.255,390.515 298.796 C 392.015 296.450,392.644 291.403,391.821 288.333 C 391.271 286.287,390.288 284.074,389.929 284.074 C 389.764 284.074,389.626 283.866,389.621 283.611 C 389.608 282.847,387.053 280.117,376.977 270.099 C 371.697 264.850,359.343 252.514,349.522 242.686 C 339.702 232.858,331.458 224.816,331.204 224.815 C 330.949 224.815,330.741 224.671,330.741 224.495 C 330.741 223.976,328.053 222.278,326.912 222.076 C 326.334 221.973,325.649 221.713,325.389 221.497 C 325.129 221.281,323.852 221.085,322.551 221.061 C 320.376 221.021,319.659 221.098,317.057 221.646 C 316.154 221.837,312.204 223.692,311.852 224.091 C 311.750 224.207,311.118 224.523,310.448 224.794 C 309.778 225.065,308.986 225.635,308.689 226.059 C 308.392 226.484,308.146 226.669,308.142 226.471 C 308.139 226.248,308.034 226.252,307.865 226.482 C 307.715 226.687,306.593 227.598,305.370 228.508 C 304.148 229.419,297.916 235.376,291.521 241.748 C 285.126 248.120,279.793 253.346,279.669 253.362 C 279.546 253.377,279.111 253.455,278.704 253.535 C 271.934 254.858,262.191 254.842,255.185 253.495 C 254.676 253.398,253.759 253.247,253.148 253.160 C 251.912 252.986,250.556 252.684,250.556 252.584 C 250.556 252.548,250.139 252.462,249.630 252.393 C 248.316 252.213,247.648 252.049,247.222 251.800 C 246.808 251.558,244.830 250.981,244.259 250.936 C 244.056 250.920,243.722 250.809,243.519 250.690 C 243.012 250.393,240.990 249.864,240.648 249.939 C 240.495 249.973,240.370 249.847,240.370 249.659 C 240.370 249.472,239.829 249.203,239.167 249.061 C 238.012 248.815,236.603 248.225,231.944 246.037 C 230.773 245.486,229.690 245.070,229.537 245.111 C 229.384 245.152,229.259 245.045,229.259 244.873 C 229.259 244.702,228.612 244.368,227.822 244.131 C 227.031 243.894,226.179 243.453,225.928 243.151 C 225.677 242.848,225.324 242.692,225.143 242.804 C 224.963 242.915,224.815 242.864,224.815 242.690 C 224.815 242.516,223.690 241.804,222.315 241.107 C 220.940 240.410,219.692 239.668,219.543 239.457 C 219.393 239.246,219.268 239.206,219.265 239.366 C 219.262 239.527,219.051 239.488,218.796 239.279 C 216.717 237.576,215.948 237.037,215.595 237.037 C 215.369 237.037,215.185 236.870,215.185 236.667 C 215.185 236.463,214.977 236.296,214.722 236.296 C 214.468 236.296,213.775 235.879,213.183 235.370 C 212.591 234.861,211.925 234.441,211.702 234.436 C 211.479 234.431,210.653 233.848,209.867 233.140 C 209.080 232.431,208.330 231.852,208.200 231.851 C 208.070 231.851,207.519 231.476,206.976 231.018 C 205.050 229.394,204.615 229.054,203.333 228.167 C 202.620 227.674,201.537 226.814,200.926 226.256 C 199.604 225.049,198.505 224.088,195.889 221.852 C 194.816 220.935,193.432 219.727,192.813 219.167 C 192.194 218.606,191.547 218.148,191.377 218.148 C 191.207 218.148,191.159 218.000,191.271 217.818 C 191.383 217.637,191.102 217.239,190.645 216.933 C 189.118 215.912,186.013 212.708,177.593 203.465 C 176.981 202.794,176.028 201.698,175.474 201.030 C 173.795 199.003,172.953 198.011,172.011 196.948 C 171.516 196.389,171.111 195.764,171.111 195.559 C 171.111 195.353,170.986 195.183,170.833 195.181 C 170.681 195.179,169.729 194.012,168.718 192.588 C 167.707 191.165,166.721 190.000,166.527 190.000 C 166.332 190.000,166.276 189.897,166.402 189.771 C 166.528 189.645,165.722 188.313,164.612 186.812 C 163.501 185.310,162.593 183.970,162.593 183.835 C 162.593 183.699,162.176 183.042,161.667 182.374 C 161.157 181.707,160.741 180.983,160.741 180.765 C 160.741 180.548,160.585 180.370,160.395 180.370 C 160.205 180.370,159.936 179.995,159.796 179.537 C 159.656 179.079,159.328 178.454,159.067 178.148 C 158.389 177.356,153.853 168.384,152.794 165.741 C 152.304 164.519,151.699 163.019,151.450 162.407 C 151.201 161.796,150.948 161.130,150.888 160.926 C 150.828 160.722,150.498 159.806,150.156 158.889 C 149.052 155.930,147.348 150.222,147.170 148.889 C 147.075 148.176,146.851 147.176,146.673 146.667 C 146.494 146.157,146.228 144.741,146.080 143.519 C 145.933 142.296,145.756 140.963,145.687 140.556 C 144.837 135.506,145.427 122.225,146.594 120.145 C 146.736 119.892,151.685 114.790,157.593 108.809 C 167.392 98.887,170.707 95.341,172.201 93.180 C 172.495 92.755,172.911 92.285,173.127 92.135 C 173.342 91.986,173.401 91.861,173.258 91.858 C 173.115 91.854,173.409 91.408,173.912 90.866 C 176.578 87.989,178.860 81.686,178.712 77.610 C 178.532 72.642,176.897 69.998,169.407 62.553 C 164.266 57.445,139.350 32.471,126.080 19.126 C 115.349 8.334,111.304 6.251,104.495 8.011 M230.185 28.203 L 230.185 37.758 233.704 37.791 C 238.681 37.838,240.874 37.977,244.259 38.459 C 245.889 38.691,248.222 38.959,249.444 39.054 C 250.667 39.150,252.224 39.394,252.905 39.598 C 253.586 39.802,255.503 40.225,257.164 40.539 C 260.229 41.117,260.585 41.194,263.056 41.802 C 263.819 41.990,264.444 42.058,264.444 41.953 C 264.444 41.847,264.653 41.922,264.907 42.119 C 265.266 42.397,267.747 43.207,269.259 43.542 C 269.361 43.564,269.694 43.685,270.000 43.810 C 270.306 43.935,271.806 44.453,273.333 44.961 C 274.861 45.469,277.028 46.251,278.148 46.698 C 279.269 47.146,280.519 47.638,280.926 47.792 C 283.394 48.721,293.097 53.458,293.981 54.165 C 294.236 54.369,294.447 54.390,294.450 54.212 C 294.453 54.034,294.578 54.064,294.728 54.278 C 295.017 54.692,298.750 57.037,299.119 57.037 C 299.239 57.037,299.945 57.510,300.687 58.087 C 301.430 58.665,302.745 59.529,303.611 60.007 C 304.477 60.486,305.185 61.041,305.185 61.241 C 305.185 61.441,305.288 61.502,305.414 61.376 C 305.541 61.250,305.846 61.347,306.094 61.592 C 306.342 61.837,307.007 62.370,307.572 62.778 C 308.138 63.185,308.790 63.691,309.023 63.901 C 309.255 64.111,310.028 64.679,310.741 65.162 C 311.454 65.645,312.204 66.225,312.407 66.451 C 312.611 66.676,313.889 67.725,315.246 68.782 C 316.604 69.839,318.354 71.362,319.135 72.167 C 319.916 72.972,321.280 74.231,322.165 74.964 C 323.050 75.697,323.689 76.296,323.585 76.296 C 323.481 76.296,324.863 77.838,326.658 79.722 C 328.452 81.606,331.361 84.981,333.121 87.222 C 334.882 89.463,336.525 91.547,336.772 91.853 C 338.777 94.333,339.630 95.537,339.630 95.887 C 339.630 96.112,339.796 96.296,340.000 96.296 C 340.204 96.296,340.370 96.546,340.370 96.852 C 340.370 97.157,340.537 97.407,340.741 97.407 C 340.944 97.407,341.070 97.532,341.021 97.685 C 340.930 97.965,342.532 100.767,342.979 101.111 C 343.304 101.361,345.262 104.822,346.751 107.778 C 347.417 109.102,348.089 110.241,348.243 110.309 C 348.397 110.378,348.429 110.586,348.314 110.772 C 348.199 110.959,348.281 111.111,348.497 111.111 C 348.712 111.111,348.889 111.317,348.889 111.568 C 348.889 111.819,349.405 113.111,350.035 114.438 C 352.186 118.968,352.593 119.896,352.593 120.271 C 352.593 120.478,352.903 121.376,353.283 122.268 C 354.138 124.273,354.527 125.260,354.654 125.741 C 354.707 125.944,355.337 127.897,356.053 130.079 C 356.768 132.261,357.888 136.428,358.541 139.338 C 359.193 142.248,359.810 144.880,359.912 145.185 C 360.014 145.491,360.160 146.225,360.237 146.817 C 360.314 147.408,360.457 148.325,360.555 148.854 C 360.652 149.382,360.828 150.815,360.945 152.037 C 361.062 153.259,361.334 155.593,361.549 157.222 C 361.885 159.761,362.041 162.476,362.192 168.426 L 362.222 169.630 371.693 169.630 L 381.163 169.630 380.972 164.167 C 380.780 158.692,380.640 156.601,380.232 153.148 C 380.112 152.130,379.923 150.389,379.811 149.281 C 379.699 148.172,379.534 146.922,379.444 146.503 C 379.355 146.084,379.196 145.157,379.092 144.444 C 378.987 143.731,378.809 142.731,378.695 142.222 C 378.581 141.713,378.336 140.463,378.152 139.444 C 377.968 138.426,377.561 136.637,377.248 135.470 C 376.935 134.302,376.594 132.886,376.489 132.322 C 376.270 131.144,375.426 128.110,374.864 126.481 C 374.654 125.870,374.128 124.204,373.697 122.778 C 373.265 121.352,372.862 120.019,372.800 119.815 C 372.738 119.611,372.652 119.278,372.608 119.074 C 372.565 118.870,372.357 118.495,372.145 118.241 C 371.934 117.986,371.871 117.778,372.005 117.778 C 372.139 117.778,372.042 117.403,371.790 116.944 C 371.538 116.486,371.302 115.935,371.265 115.719 C 371.228 115.503,370.761 114.373,370.228 113.208 C 369.695 112.043,369.259 110.931,369.259 110.738 C 369.259 110.240,367.285 106.157,366.913 105.885 C 366.743 105.760,366.605 105.510,366.608 105.329 C 366.616 104.729,363.614 98.732,362.456 97.037 C 361.831 96.120,361.375 95.316,361.444 95.249 C 361.513 95.183,361.070 94.349,360.459 93.397 C 359.848 92.446,358.990 91.000,358.552 90.185 C 357.862 88.900,355.037 84.601,354.173 83.519 C 354.010 83.315,353.107 82.065,352.166 80.741 C 351.225 79.417,350.019 77.866,349.487 77.296 C 348.954 76.725,348.519 76.137,348.519 75.989 C 348.519 75.842,348.060 75.194,347.500 74.551 C 346.940 73.907,345.815 72.597,345.000 71.639 C 341.063 67.012,336.534 62.288,333.885 60.046 C 333.072 59.359,332.641 58.926,332.928 59.085 C 333.274 59.277,333.360 59.231,333.184 58.946 C 333.038 58.711,332.778 58.519,332.604 58.519 C 332.431 58.519,331.316 57.586,330.126 56.446 C 327.959 54.370,327.328 53.861,320.682 48.823 C 315.743 45.078,315.415 44.848,315.041 44.864 C 314.860 44.872,314.610 44.737,314.486 44.564 C 314.120 44.056,306.882 39.422,305.185 38.608 C 304.676 38.364,303.593 37.762,302.778 37.270 C 301.034 36.217,293.785 32.552,293.189 32.422 C 292.963 32.373,291.444 31.709,289.815 30.947 C 288.185 30.185,286.102 29.315,285.185 29.015 C 284.269 28.714,282.970 28.219,282.301 27.914 C 281.631 27.609,280.756 27.335,280.356 27.305 C 279.957 27.274,279.630 27.091,279.630 26.896 C 279.630 26.702,279.520 26.653,279.386 26.787 C 279.252 26.921,278.960 26.895,278.738 26.730 C 278.515 26.565,277.583 26.207,276.667 25.934 C 275.750 25.661,274.000 25.114,272.778 24.718 C 271.556 24.322,270.139 23.915,269.630 23.815 C 268.394 23.572,268.204 23.526,266.481 23.043 C 264.815 22.576,263.575 22.303,261.020 21.843 C 260.052 21.669,259.136 21.451,258.982 21.359 C 258.656 21.162,255.492 20.678,253.889 20.579 C 253.278 20.541,252.444 20.402,252.037 20.269 C 250.200 19.669,241.567 18.966,233.148 18.730 L 230.185 18.647 230.185 28.203 M230.290 84.783 L 230.185 94.425 233.333 94.416 C 236.219 94.407,237.389 94.503,240.556 95.005 C 241.167 95.102,242.474 95.276,243.461 95.391 C 244.448 95.506,245.662 95.755,246.159 95.944 C 246.656 96.133,247.182 96.270,247.328 96.248 C 247.473 96.226,247.676 96.241,247.778 96.281 C 248.063 96.392,249.362 96.694,250.185 96.841 C 250.593 96.913,251.528 97.230,252.263 97.544 C 252.999 97.858,253.999 98.191,254.485 98.284 C 255.633 98.502,256.445 98.800,258.704 99.826 C 263.470 101.994,266.498 103.460,266.667 103.683 C 266.769 103.817,267.435 104.214,268.148 104.565 C 269.291 105.127,273.263 107.765,274.822 108.999 C 275.132 109.244,276.034 109.932,276.826 110.527 C 280.006 112.916,286.302 119.047,288.647 122.037 C 289.286 122.852,289.936 123.574,290.090 123.642 C 290.244 123.710,290.370 124.007,290.370 124.302 C 290.370 124.597,290.620 124.934,290.926 125.051 C 291.231 125.169,291.481 125.497,291.481 125.780 C 291.481 126.064,291.648 126.296,291.852 126.296 C 292.056 126.296,292.222 126.546,292.222 126.852 C 292.222 127.157,292.349 127.407,292.505 127.407 C 292.660 127.407,292.952 127.737,293.153 128.140 C 293.354 128.543,294.394 130.306,295.463 132.057 C 296.532 133.809,297.408 135.354,297.409 135.491 C 297.409 135.628,298.001 136.907,298.724 138.333 C 300.062 140.972,300.649 142.551,302.372 148.148 C 303.489 151.778,303.559 152.076,304.285 156.296 C 305.042 160.691,305.452 164.268,305.615 167.870 L 305.694 169.630 315.069 169.630 C 324.328 169.630,324.568 169.601,324.525 168.519 C 324.390 165.176,324.009 159.209,323.885 158.519 C 323.794 158.009,323.634 156.843,323.530 155.926 C 323.425 155.009,323.250 153.843,323.140 153.333 C 322.814 151.827,322.186 148.774,321.998 147.778 C 321.902 147.269,321.714 146.519,321.582 146.111 C 321.450 145.704,321.307 145.179,321.265 144.946 C 321.053 143.777,318.728 136.791,318.416 136.389 C 318.219 136.134,318.182 135.926,318.333 135.926 C 318.485 135.926,318.440 135.718,318.234 135.463 C 318.028 135.208,317.242 133.500,316.487 131.667 C 314.955 127.946,311.928 122.104,311.433 121.914 C 311.256 121.846,311.111 121.580,311.111 121.323 C 311.111 120.913,308.313 116.412,307.756 115.926 C 307.639 115.824,306.979 114.907,306.289 113.889 C 305.600 112.870,304.861 111.842,304.647 111.604 C 304.434 111.365,303.676 110.466,302.963 109.606 C 302.250 108.746,300.935 107.274,300.041 106.336 C 299.147 105.397,298.170 104.255,297.869 103.796 C 297.568 103.338,297.082 102.963,296.787 102.963 C 296.493 102.963,296.344 102.815,296.456 102.633 C 296.569 102.452,296.287 102.057,295.830 101.756 C 295.374 101.455,294.236 100.478,293.303 99.586 C 291.639 97.995,290.761 97.253,287.407 94.604 C 286.491 93.880,285.449 93.050,285.093 92.759 C 284.736 92.468,284.444 92.318,284.444 92.426 C 284.444 92.534,284.236 92.442,283.981 92.223 C 282.121 90.622,271.392 84.403,269.630 83.903 C 269.528 83.875,268.316 83.313,266.937 82.655 C 265.558 81.998,263.929 81.360,263.318 81.238 C 262.707 81.115,262.122 80.878,262.017 80.709 C 261.913 80.541,261.583 80.497,261.284 80.611 C 260.985 80.726,260.741 80.635,260.741 80.410 C 260.741 80.184,260.616 80.020,260.463 80.044 C 260.310 80.068,260.102 80.055,260.000 80.016 C 259.898 79.976,259.481 79.883,259.074 79.810 C 258.181 79.650,255.654 78.915,254.630 78.517 C 252.403 77.653,246.137 76.385,242.845 76.131 C 241.687 76.042,240.615 75.894,240.463 75.802 C 240.310 75.709,237.982 75.523,235.290 75.388 L 230.395 75.142 230.290 84.783 M230.457 141.299 L 230.556 150.841 232.296 150.972 C 234.307 151.124,238.444 152.596,240.026 153.722 C 240.623 154.147,241.111 154.387,241.111 154.255 C 241.111 154.003,243.611 156.523,245.185 158.363 C 246.996 160.478,248.419 163.946,248.744 167.037 C 248.841 167.954,248.991 168.912,249.078 169.167 C 249.199 169.521,251.450 169.630,258.651 169.630 L 268.067 169.630 267.934 168.426 C 267.860 167.764,267.717 166.389,267.616 165.370 C 267.178 160.970,265.851 156.429,263.936 152.778 C 262.364 149.781,258.963 144.820,258.308 144.568 C 258.016 144.457,257.778 144.200,257.778 143.998 C 257.778 143.164,251.070 137.572,250.616 138.026 C 250.481 138.161,250.370 138.111,250.370 137.915 C 250.370 137.416,243.637 134.068,242.927 134.214 C 242.806 134.239,242.472 134.069,242.187 133.836 C 241.901 133.604,240.667 133.200,239.444 132.938 C 238.222 132.676,236.972 132.397,236.667 132.318 C 236.361 132.239,234.817 132.080,233.234 131.965 L 230.358 131.756 230.457 141.299 " stroke="none" fill="#f4741c" fill-rule="evenodd"></path><path id="path1" d="M118.979 12.315 C 123.063 16.001,122.935 15.905,120.940 13.795 C 119.929 12.726,118.959 11.852,118.784 11.852 C 118.609 11.852,118.696 12.060,118.979 12.315 M87.940 18.241 L 86.852 19.444 88.056 18.357 C 89.178 17.343,89.430 17.037,89.143 17.037 C 89.080 17.037,88.538 17.579,87.940 18.241 M125.741 18.889 C 126.536 19.704,127.271 20.370,127.373 20.370 C 127.474 20.370,126.907 19.704,126.111 18.889 C 125.315 18.074,124.581 17.407,124.479 17.407 C 124.377 17.407,124.945 18.074,125.741 18.889 M230.167 18.988 C 230.068 19.247,230.031 23.539,230.086 28.526 L 230.186 37.593 230.371 28.055 C 230.552 18.726,230.536 18.027,230.167 18.988 M134.059 27.222 C 140.333 33.568,159.980 53.109,160.297 53.319 C 160.439 53.413,153.640 46.538,145.187 38.041 C 136.734 29.544,129.743 22.593,129.650 22.593 C 129.558 22.593,131.542 24.676,134.059 27.222 M68.310 37.500 L 67.222 38.704 68.426 37.616 C 69.088 37.018,69.630 36.476,69.630 36.412 C 69.630 36.126,69.324 36.378,68.310 37.500 M56.846 48.958 C 54.608 51.237,53.073 52.880,53.434 52.610 C 53.919 52.246,59.239 46.937,61.080 44.979 C 61.165 44.889,61.162 44.815,61.074 44.815 C 60.986 44.815,59.083 46.679,56.846 48.958 M321.111 49.024 C 321.111 49.125,321.611 49.565,322.222 50.000 C 322.833 50.435,323.333 50.708,323.333 50.606 C 323.333 50.504,322.833 50.065,322.222 49.630 C 321.611 49.194,321.111 48.922,321.111 49.024 M161.158 54.350 C 161.438 54.706,161.841 55.164,162.055 55.369 C 162.268 55.573,164.851 58.071,167.795 60.919 L 173.148 66.098 167.041 59.901 C 161.336 54.112,159.921 52.776,161.158 54.350 M332.778 59.124 C 332.981 59.303,333.731 59.949,334.443 60.558 L 335.738 61.667 334.813 60.614 C 334.305 60.035,333.556 59.390,333.148 59.180 C 332.741 58.970,332.574 58.945,332.778 59.124 M337.407 63.449 C 337.407 63.513,337.949 64.055,338.611 64.653 L 339.815 65.741 338.727 64.537 C 337.713 63.415,337.407 63.163,337.407 63.449 M340.370 66.412 C 340.370 66.476,340.912 67.018,341.574 67.616 L 342.778 68.704 341.690 67.500 C 340.676 66.378,340.370 66.126,340.370 66.412 M317.017 70.489 C 317.719 71.238,318.339 71.852,318.394 71.852 C 318.770 71.852,317.901 70.776,316.919 70.026 L 315.741 69.125 317.017 70.489 M322.118 75.193 C 322.773 75.881,323.372 76.369,323.449 76.277 C 323.526 76.186,322.989 75.623,322.257 75.027 L 320.926 73.943 322.118 75.193 M230.161 84.630 C 230.162 89.926,230.214 92.041,230.277 89.330 C 230.340 86.619,230.340 82.286,230.277 79.700 C 230.213 77.115,230.161 79.333,230.161 84.630 M327.037 80.232 C 327.037 80.427,327.829 81.330,328.796 82.238 L 330.556 83.889 328.889 82.044 C 327.972 81.029,327.181 80.126,327.130 80.038 C 327.079 79.949,327.037 80.036,327.037 80.232 M281.298 90.372 C 281.546 90.774,283.704 91.976,283.704 91.713 C 283.704 91.626,283.110 91.205,282.385 90.777 C 281.660 90.349,281.171 90.167,281.298 90.372 M337.037 92.343 C 337.037 92.730,339.384 95.924,339.548 95.761 C 339.633 95.676,339.103 94.821,338.370 93.861 C 337.637 92.901,337.037 92.218,337.037 92.343 M362.071 96.481 C 362.405 96.991,362.738 97.407,362.812 97.407 C 362.886 97.407,362.757 96.991,362.525 96.481 C 362.293 95.972,361.960 95.556,361.784 95.556 C 361.608 95.556,361.737 95.972,362.071 96.481 M294.126 100.316 C 294.361 100.693,294.904 101.214,295.333 101.473 C 295.878 101.803,295.785 101.597,295.023 100.787 C 293.785 99.469,293.506 99.323,294.126 100.316 M160.741 105.741 C 159.223 107.269,158.065 108.519,158.167 108.519 C 158.269 108.519,159.594 107.269,161.111 105.741 C 162.629 104.213,163.787 102.963,163.685 102.963 C 163.583 102.963,162.258 104.213,160.741 105.741 M298.200 104.390 C 298.435 104.767,298.979 105.288,299.407 105.547 C 299.952 105.877,299.859 105.672,299.097 104.861 C 297.859 103.544,297.580 103.397,298.200 104.390 M283.148 116.296 C 283.944 117.111,284.678 117.778,284.780 117.778 C 284.882 117.778,284.314 117.111,283.519 116.296 C 282.723 115.481,281.989 114.815,281.887 114.815 C 281.785 114.815,282.353 115.481,283.148 116.296 M230.077 141.182 C 230.035 146.415,230.125 150.775,230.278 150.869 C 230.431 150.964,230.513 148.182,230.460 144.688 C 230.283 132.820,230.154 131.641,230.077 141.182 M55.211 132.407 C 55.211 132.611,55.450 133.194,55.741 133.704 C 56.032 134.213,56.270 134.463,56.270 134.259 C 56.270 134.056,56.032 133.472,55.741 132.963 C 55.450 132.454,55.211 132.204,55.211 132.407 M299.559 140.556 C 299.747 140.963,299.993 141.546,300.106 141.852 C 300.284 142.332,300.316 142.329,300.341 141.830 C 300.357 141.513,300.111 140.929,299.794 140.534 C 299.228 139.826,299.224 139.827,299.559 140.556 M60.137 142.130 C 60.480 142.792,60.823 143.333,60.901 143.333 C 61.239 143.333,60.608 141.832,60.088 141.401 C 59.604 140.999,59.611 141.112,60.137 142.130 M261.283 148.426 C 261.854 149.292,262.391 150.000,262.478 150.000 C 262.745 150.000,261.327 147.746,260.770 147.286 C 260.481 147.047,260.712 147.560,261.283 148.426 M380.086 152.222 C 380.086 152.935,380.162 153.227,380.255 152.870 C 380.348 152.514,380.348 151.931,380.255 151.574 C 380.162 151.218,380.086 151.509,380.086 152.222 M95.926 195.556 C 96.361 196.167,96.800 196.667,96.902 196.667 C 97.004 196.667,96.731 196.167,96.296 195.556 C 95.861 194.944,95.422 194.444,95.320 194.444 C 95.218 194.444,95.491 194.944,95.926 195.556 M184.855 211.389 C 186.605 213.293,188.763 215.400,190.091 216.500 C 190.550 216.881,189.262 215.490,187.229 213.411 C 183.374 209.468,182.069 208.356,184.855 211.389 M117.778 222.096 C 117.778 222.298,118.236 222.868,118.796 223.361 L 119.815 224.259 118.889 223.148 C 118.380 222.537,117.921 221.968,117.870 221.883 C 117.819 221.798,117.778 221.894,117.778 222.096 M333.227 226.389 C 333.392 226.644,336.525 229.766,340.190 233.328 L 346.852 239.805 340.004 232.865 C 333.401 226.175,332.575 225.385,333.227 226.389 M201.111 226.431 C 201.111 226.533,201.611 226.972,202.222 227.407 C 202.833 227.843,203.333 228.115,203.333 228.013 C 203.333 227.912,202.833 227.472,202.222 227.037 C 201.611 226.602,201.111 226.329,201.111 226.431 M210.638 233.731 C 211.091 234.203,211.554 234.495,211.668 234.381 C 211.782 234.268,211.411 233.882,210.845 233.524 L 209.815 232.874 210.638 233.731 M294.612 238.241 L 293.148 239.815 294.722 238.351 C 296.186 236.989,296.466 236.667,296.186 236.667 C 296.126 236.667,295.417 237.375,294.612 238.241 M132.565 239.011 C 133.508 240.050,133.711 240.178,133.692 239.722 C 133.686 239.569,133.227 239.124,132.674 238.733 L 131.667 238.022 132.565 239.011 M288.137 244.701 C 286.666 246.222,286.232 246.819,287.013 246.246 C 288.153 245.410,291.062 242.222,290.685 242.222 C 290.602 242.222,289.456 243.338,288.137 244.701 M352.593 245.741 C 353.284 246.454,353.932 247.037,354.034 247.037 C 354.136 247.037,353.654 246.454,352.963 245.741 C 352.272 245.028,351.623 244.444,351.521 244.444 C 351.420 244.444,351.902 245.028,352.593 245.741 M282.943 249.873 C 281.931 250.947,281.870 251.081,282.650 250.521 C 283.500 249.910,284.671 248.519,284.335 248.519 C 284.271 248.519,283.645 249.128,282.943 249.873 M363.745 256.942 C 365.454 258.723,367.435 260.677,368.148 261.284 C 368.861 261.891,367.531 260.434,365.193 258.046 C 362.855 255.658,360.873 253.704,360.790 253.704 C 360.707 253.704,362.037 255.161,363.745 256.942 M154.059 260.833 C 155.593 262.469,155.926 262.763,155.926 262.485 C 155.926 262.425,155.134 261.633,154.167 260.725 L 152.407 259.074 154.059 260.833 M369.630 262.708 C 369.630 262.772,370.171 263.314,370.833 263.912 L 372.037 265.000 370.949 263.796 C 369.935 262.674,369.630 262.422,369.630 262.708 M158.889 265.313 C 158.889 265.370,159.412 265.906,160.051 266.505 C 161.208 267.588,161.210 267.588,160.584 266.605 C 160.073 265.802,158.889 264.899,158.889 265.313 M375.000 268.148 C 376.620 269.778,378.029 271.111,378.131 271.111 C 378.233 271.111,376.990 269.778,375.370 268.148 C 373.750 266.519,372.341 265.185,372.240 265.185 C 372.138 265.185,373.380 266.519,375.000 268.148 M165.926 271.597 C 165.926 271.661,166.468 272.203,167.130 272.801 L 168.333 273.889 167.246 272.685 C 166.232 271.563,165.926 271.311,165.926 271.597 M380.370 273.519 C 381.477 274.639,382.465 275.556,382.567 275.556 C 382.669 275.556,381.847 274.639,380.741 273.519 C 379.634 272.398,378.646 271.481,378.544 271.481 C 378.442 271.481,379.264 272.398,380.370 273.519 M384.444 277.593 C 385.135 278.306,385.784 278.889,385.886 278.889 C 385.988 278.889,385.506 278.306,384.815 277.593 C 384.124 276.880,383.475 276.296,383.373 276.296 C 383.271 276.296,383.753 276.880,384.444 277.593 M181.083 284.937 C 182.027 285.976,182.230 286.104,182.211 285.648 C 182.204 285.495,181.746 285.050,181.192 284.659 L 180.185 283.948 181.083 284.937 M218.889 314.579 C 218.889 314.681,219.389 315.120,220.000 315.556 C 220.611 315.991,221.111 316.263,221.111 316.162 C 221.111 316.060,220.611 315.620,220.000 315.185 C 219.389 314.750,218.889 314.477,218.889 314.579 M369.057 324.167 L 367.593 325.741 369.167 324.277 C 370.631 322.915,370.911 322.593,370.631 322.593 C 370.570 322.593,369.862 323.301,369.057 324.167 M349.803 343.426 L 347.593 345.741 349.907 343.530 C 351.181 342.314,352.222 341.273,352.222 341.215 C 352.222 340.942,351.857 341.276,349.803 343.426 M263.735 342.731 C 264.116 343.072,266.296 344.074,266.296 343.908 C 266.296 343.695,264.243 342.593,263.846 342.593 C 263.700 342.593,263.650 342.655,263.735 342.731 M273.333 347.407 C 274.046 347.798,274.796 348.117,275.000 348.117 C 275.204 348.117,274.787 347.798,274.074 347.407 C 273.361 347.017,272.611 346.698,272.407 346.698 C 272.204 346.698,272.620 347.017,273.333 347.407 " stroke="none" fill="#f8741c" fill-rule="evenodd"></path><path id="path2" d="M118.979 12.315 C 123.063 16.001,122.935 15.905,120.940 13.795 C 119.929 12.726,118.959 11.852,118.784 11.852 C 118.609 11.852,118.696 12.060,118.979 12.315 M87.940 18.241 L 86.852 19.444 88.056 18.357 C 89.178 17.343,89.430 17.037,89.143 17.037 C 89.080 17.037,88.538 17.579,87.940 18.241 M125.741 18.889 C 126.536 19.704,127.271 20.370,127.373 20.370 C 127.474 20.370,126.907 19.704,126.111 18.889 C 125.315 18.074,124.581 17.407,124.479 17.407 C 124.377 17.407,124.945 18.074,125.741 18.889 M230.167 18.988 C 230.068 19.247,230.031 23.539,230.086 28.526 L 230.186 37.593 230.371 28.055 C 230.552 18.726,230.536 18.027,230.167 18.988 M134.059 27.222 C 140.333 33.568,159.980 53.109,160.297 53.319 C 160.439 53.413,153.640 46.538,145.187 38.041 C 136.734 29.544,129.743 22.593,129.650 22.593 C 129.558 22.593,131.542 24.676,134.059 27.222 M68.310 37.500 L 67.222 38.704 68.426 37.616 C 69.088 37.018,69.630 36.476,69.630 36.412 C 69.630 36.126,69.324 36.378,68.310 37.500 M56.846 48.958 C 54.608 51.237,53.073 52.880,53.434 52.610 C 53.919 52.246,59.239 46.937,61.080 44.979 C 61.165 44.889,61.162 44.815,61.074 44.815 C 60.986 44.815,59.083 46.679,56.846 48.958 M321.111 49.024 C 321.111 49.125,321.611 49.565,322.222 50.000 C 322.833 50.435,323.333 50.708,323.333 50.606 C 323.333 50.504,322.833 50.065,322.222 49.630 C 321.611 49.194,321.111 48.922,321.111 49.024 M161.158 54.350 C 161.438 54.706,161.841 55.164,162.055 55.369 C 162.268 55.573,164.851 58.071,167.795 60.919 L 173.148 66.098 167.041 59.901 C 161.336 54.112,159.921 52.776,161.158 54.350 M332.778 59.124 C 332.981 59.303,333.731 59.949,334.443 60.558 L 335.738 61.667 334.813 60.614 C 334.305 60.035,333.556 59.390,333.148 59.180 C 332.741 58.970,332.574 58.945,332.778 59.124 M337.407 63.449 C 337.407 63.513,337.949 64.055,338.611 64.653 L 339.815 65.741 338.727 64.537 C 337.713 63.415,337.407 63.163,337.407 63.449 M340.370 66.412 C 340.370 66.476,340.912 67.018,341.574 67.616 L 342.778 68.704 341.690 67.500 C 340.676 66.378,340.370 66.126,340.370 66.412 M317.017 70.489 C 317.719 71.238,318.339 71.852,318.394 71.852 C 318.770 71.852,317.901 70.776,316.919 70.026 L 315.741 69.125 317.017 70.489 M322.118 75.193 C 322.773 75.881,323.372 76.369,323.449 76.277 C 323.526 76.186,322.989 75.623,322.257 75.027 L 320.926 73.943 322.118 75.193 M230.161 84.630 C 230.162 89.926,230.214 92.041,230.277 89.330 C 230.340 86.619,230.340 82.286,230.277 79.700 C 230.213 77.115,230.161 79.333,230.161 84.630 M327.037 80.232 C 327.037 80.427,327.829 81.330,328.796 82.238 L 330.556 83.889 328.889 82.044 C 327.972 81.029,327.181 80.126,327.130 80.038 C 327.079 79.949,327.037 80.036,327.037 80.232 M281.298 90.372 C 281.546 90.774,283.704 91.976,283.704 91.713 C 283.704 91.626,283.110 91.205,282.385 90.777 C 281.660 90.349,281.171 90.167,281.298 90.372 M337.037 92.343 C 337.037 92.730,339.384 95.924,339.548 95.761 C 339.633 95.676,339.103 94.821,338.370 93.861 C 337.637 92.901,337.037 92.218,337.037 92.343 M362.071 96.481 C 362.405 96.991,362.738 97.407,362.812 97.407 C 362.886 97.407,362.757 96.991,362.525 96.481 C 362.293 95.972,361.960 95.556,361.784 95.556 C 361.608 95.556,361.737 95.972,362.071 96.481 M294.126 100.316 C 294.361 100.693,294.904 101.214,295.333 101.473 C 295.878 101.803,295.785 101.597,295.023 100.787 C 293.785 99.469,293.506 99.323,294.126 100.316 M160.741 105.741 C 159.223 107.269,158.065 108.519,158.167 108.519 C 158.269 108.519,159.594 107.269,161.111 105.741 C 162.629 104.213,163.787 102.963,163.685 102.963 C 163.583 102.963,162.258 104.213,160.741 105.741 M298.200 104.390 C 298.435 104.767,298.979 105.288,299.407 105.547 C 299.952 105.877,299.859 105.672,299.097 104.861 C 297.859 103.544,297.580 103.397,298.200 104.390 M283.148 116.296 C 283.944 117.111,284.678 117.778,284.780 117.778 C 284.882 117.778,284.314 117.111,283.519 116.296 C 282.723 115.481,281.989 114.815,281.887 114.815 C 281.785 114.815,282.353 115.481,283.148 116.296 M230.077 141.182 C 230.035 146.415,230.125 150.775,230.278 150.869 C 230.431 150.964,230.513 148.182,230.460 144.688 C 230.283 132.820,230.154 131.641,230.077 141.182 M55.211 132.407 C 55.211 132.611,55.450 133.194,55.741 133.704 C 56.032 134.213,56.270 134.463,56.270 134.259 C 56.270 134.056,56.032 133.472,55.741 132.963 C 55.450 132.454,55.211 132.204,55.211 132.407 M299.559 140.556 C 299.747 140.963,299.993 141.546,300.106 141.852 C 300.284 142.332,300.316 142.329,300.341 141.830 C 300.357 141.513,300.111 140.929,299.794 140.534 C 299.228 139.826,299.224 139.827,299.559 140.556 M60.137 142.130 C 60.480 142.792,60.823 143.333,60.901 143.333 C 61.239 143.333,60.608 141.832,60.088 141.401 C 59.604 140.999,59.611 141.112,60.137 142.130 M261.283 148.426 C 261.854 149.292,262.391 150.000,262.478 150.000 C 262.745 150.000,261.327 147.746,260.770 147.286 C 260.481 147.047,260.712 147.560,261.283 148.426 M380.086 152.222 C 380.086 152.935,380.162 153.227,380.255 152.870 C 380.348 152.514,380.348 151.931,380.255 151.574 C 380.162 151.218,380.086 151.509,380.086 152.222 M95.926 195.556 C 96.361 196.167,96.800 196.667,96.902 196.667 C 97.004 196.667,96.731 196.167,96.296 195.556 C 95.861 194.944,95.422 194.444,95.320 194.444 C 95.218 194.444,95.491 194.944,95.926 195.556 M184.855 211.389 C 186.605 213.293,188.763 215.400,190.091 216.500 C 190.550 216.881,189.262 215.490,187.229 213.411 C 183.374 209.468,182.069 208.356,184.855 211.389 M117.778 222.096 C 117.778 222.298,118.236 222.868,118.796 223.361 L 119.815 224.259 118.889 223.148 C 118.380 222.537,117.921 221.968,117.870 221.883 C 117.819 221.798,117.778 221.894,117.778 222.096 M333.227 226.389 C 333.392 226.644,336.525 229.766,340.190 233.328 L 346.852 239.805 340.004 232.865 C 333.401 226.175,332.575 225.385,333.227 226.389 M201.111 226.431 C 201.111 226.533,201.611 226.972,202.222 227.407 C 202.833 227.843,203.333 228.115,203.333 228.013 C 203.333 227.912,202.833 227.472,202.222 227.037 C 201.611 226.602,201.111 226.329,201.111 226.431 M210.638 233.731 C 211.091 234.203,211.554 234.495,211.668 234.381 C 211.782 234.268,211.411 233.882,210.845 233.524 L 209.815 232.874 210.638 233.731 M294.612 238.241 L 293.148 239.815 294.722 238.351 C 296.186 236.989,296.466 236.667,296.186 236.667 C 296.126 236.667,295.417 237.375,294.612 238.241 M132.565 239.011 C 133.508 240.050,133.711 240.178,133.692 239.722 C 133.686 239.569,133.227 239.124,132.674 238.733 L 131.667 238.022 132.565 239.011 M288.137 244.701 C 286.666 246.222,286.232 246.819,287.013 246.246 C 288.153 245.410,291.062 242.222,290.685 242.222 C 290.602 242.222,289.456 243.338,288.137 244.701 M352.593 245.741 C 353.284 246.454,353.932 247.037,354.034 247.037 C 354.136 247.037,353.654 246.454,352.963 245.741 C 352.272 245.028,351.623 244.444,351.521 244.444 C 351.420 244.444,351.902 245.028,352.593 245.741 M282.943 249.873 C 281.931 250.947,281.870 251.081,282.650 250.521 C 283.500 249.910,284.671 248.519,284.335 248.519 C 284.271 248.519,283.645 249.128,282.943 249.873 M363.745 256.942 C 365.454 258.723,367.435 260.677,368.148 261.284 C 368.861 261.891,367.531 260.434,365.193 258.046 C 362.855 255.658,360.873 253.704,360.790 253.704 C 360.707 253.704,362.037 255.161,363.745 256.942 M154.059 260.833 C 155.593 262.469,155.926 262.763,155.926 262.485 C 155.926 262.425,155.134 261.633,154.167 260.725 L 152.407 259.074 154.059 260.833 M369.630 262.708 C 369.630 262.772,370.171 263.314,370.833 263.912 L 372.037 265.000 370.949 263.796 C 369.935 262.674,369.630 262.422,369.630 262.708 M158.889 265.313 C 158.889 265.370,159.412 265.906,160.051 266.505 C 161.208 267.588,161.210 267.588,160.584 266.605 C 160.073 265.802,158.889 264.899,158.889 265.313 M375.000 268.148 C 376.620 269.778,378.029 271.111,378.131 271.111 C 378.233 271.111,376.990 269.778,375.370 268.148 C 373.750 266.519,372.341 265.185,372.240 265.185 C 372.138 265.185,373.380 266.519,375.000 268.148 M165.926 271.597 C 165.926 271.661,166.468 272.203,167.130 272.801 L 168.333 273.889 167.246 272.685 C 166.232 271.563,165.926 271.311,165.926 271.597 M380.370 273.519 C 381.477 274.639,382.465 275.556,382.567 275.556 C 382.669 275.556,381.847 274.639,380.741 273.519 C 379.634 272.398,378.646 271.481,378.544 271.481 C 378.442 271.481,379.264 272.398,380.370 273.519 M384.444 277.593 C 385.135 278.306,385.784 278.889,385.886 278.889 C 385.988 278.889,385.506 278.306,384.815 277.593 C 384.124 276.880,383.475 276.296,383.373 276.296 C 383.271 276.296,383.753 276.880,384.444 277.593 M181.083 284.937 C 182.027 285.976,182.230 286.104,182.211 285.648 C 182.204 285.495,181.746 285.050,181.192 284.659 L 180.185 283.948 181.083 284.937 M218.889 314.579 C 218.889 314.681,219.389 315.120,220.000 315.556 C 220.611 315.991,221.111 316.263,221.111 316.162 C 221.111 316.060,220.611 315.620,220.000 315.185 C 219.389 314.750,218.889 314.477,218.889 314.579 M369.057 324.167 L 367.593 325.741 369.167 324.277 C 370.631 322.915,370.911 322.593,370.631 322.593 C 370.570 322.593,369.862 323.301,369.057 324.167 M349.803 343.426 L 347.593 345.741 349.907 343.530 C 351.181 342.314,352.222 341.273,352.222 341.215 C 352.222 340.942,351.857 341.276,349.803 343.426 M263.735 342.731 C 264.116 343.072,266.296 344.074,266.296 343.908 C 266.296 343.695,264.243 342.593,263.846 342.593 C 263.700 342.593,263.650 342.655,263.735 342.731 M273.333 347.407 C 274.046 347.798,274.796 348.117,275.000 348.117 C 275.204 348.117,274.787 347.798,274.074 347.407 C 273.361 347.017,272.611 346.698,272.407 346.698 C 272.204 346.698,272.620 347.017,273.333 347.407 " stroke="none" fill="#f8741c" fill-rule="evenodd"></path><path id="path3" d="M118.979 12.315 C 123.063 16.001,122.935 15.905,120.940 13.795 C 119.929 12.726,118.959 11.852,118.784 11.852 C 118.609 11.852,118.696 12.060,118.979 12.315 M87.940 18.241 L 86.852 19.444 88.056 18.357 C 89.178 17.343,89.430 17.037,89.143 17.037 C 89.080 17.037,88.538 17.579,87.940 18.241 M125.741 18.889 C 126.536 19.704,127.271 20.370,127.373 20.370 C 127.474 20.370,126.907 19.704,126.111 18.889 C 125.315 18.074,124.581 17.407,124.479 17.407 C 124.377 17.407,124.945 18.074,125.741 18.889 M230.167 18.988 C 230.068 19.247,230.031 23.539,230.086 28.526 L 230.186 37.593 230.371 28.055 C 230.552 18.726,230.536 18.027,230.167 18.988 M134.059 27.222 C 140.333 33.568,159.980 53.109,160.297 53.319 C 160.439 53.413,153.640 46.538,145.187 38.041 C 136.734 29.544,129.743 22.593,129.650 22.593 C 129.558 22.593,131.542 24.676,134.059 27.222 M68.310 37.500 L 67.222 38.704 68.426 37.616 C 69.088 37.018,69.630 36.476,69.630 36.412 C 69.630 36.126,69.324 36.378,68.310 37.500 M56.846 48.958 C 54.608 51.237,53.073 52.880,53.434 52.610 C 53.919 52.246,59.239 46.937,61.080 44.979 C 61.165 44.889,61.162 44.815,61.074 44.815 C 60.986 44.815,59.083 46.679,56.846 48.958 M321.111 49.024 C 321.111 49.125,321.611 49.565,322.222 50.000 C 322.833 50.435,323.333 50.708,323.333 50.606 C 323.333 50.504,322.833 50.065,322.222 49.630 C 321.611 49.194,321.111 48.922,321.111 49.024 M161.158 54.350 C 161.438 54.706,161.841 55.164,162.055 55.369 C 162.268 55.573,164.851 58.071,167.795 60.919 L 173.148 66.098 167.041 59.901 C 161.336 54.112,159.921 52.776,161.158 54.350 M332.778 59.124 C 332.981 59.303,333.731 59.949,334.443 60.558 L 335.738 61.667 334.813 60.614 C 334.305 60.035,333.556 59.390,333.148 59.180 C 332.741 58.970,332.574 58.945,332.778 59.124 M337.407 63.449 C 337.407 63.513,337.949 64.055,338.611 64.653 L 339.815 65.741 338.727 64.537 C 337.713 63.415,337.407 63.163,337.407 63.449 M340.370 66.412 C 340.370 66.476,340.912 67.018,341.574 67.616 L 342.778 68.704 341.690 67.500 C 340.676 66.378,340.370 66.126,340.370 66.412 M317.017 70.489 C 317.719 71.238,318.339 71.852,318.394 71.852 C 318.770 71.852,317.901 70.776,316.919 70.026 L 315.741 69.125 317.017 70.489 M322.118 75.193 C 322.773 75.881,323.372 76.369,323.449 76.277 C 323.526 76.186,322.989 75.623,322.257 75.027 L 320.926 73.943 322.118 75.193 M230.161 84.630 C 230.162 89.926,230.214 92.041,230.277 89.330 C 230.340 86.619,230.340 82.286,230.277 79.700 C 230.213 77.115,230.161 79.333,230.161 84.630 M327.037 80.232 C 327.037 80.427,327.829 81.330,328.796 82.238 L 330.556 83.889 328.889 82.044 C 327.972 81.029,327.181 80.126,327.130 80.038 C 327.079 79.949,327.037 80.036,327.037 80.232 M281.298 90.372 C 281.546 90.774,283.704 91.976,283.704 91.713 C 283.704 91.626,283.110 91.205,282.385 90.777 C 281.660 90.349,281.171 90.167,281.298 90.372 M337.037 92.343 C 337.037 92.730,339.384 95.924,339.548 95.761 C 339.633 95.676,339.103 94.821,338.370 93.861 C 337.637 92.901,337.037 92.218,337.037 92.343 M362.071 96.481 C 362.405 96.991,362.738 97.407,362.812 97.407 C 362.886 97.407,362.757 96.991,362.525 96.481 C 362.293 95.972,361.960 95.556,361.784 95.556 C 361.608 95.556,361.737 95.972,362.071 96.481 M294.126 100.316 C 294.361 100.693,294.904 101.214,295.333 101.473 C 295.878 101.803,295.785 101.597,295.023 100.787 C 293.785 99.469,293.506 99.323,294.126 100.316 M160.741 105.741 C 159.223 107.269,158.065 108.519,158.167 108.519 C 158.269 108.519,159.594 107.269,161.111 105.741 C 162.629 104.213,163.787 102.963,163.685 102.963 C 163.583 102.963,162.258 104.213,160.741 105.741 M298.200 104.390 C 298.435 104.767,298.979 105.288,299.407 105.547 C 299.952 105.877,299.859 105.672,299.097 104.861 C 297.859 103.544,297.580 103.397,298.200 104.390 M283.148 116.296 C 283.944 117.111,284.678 117.778,284.780 117.778 C 284.882 117.778,284.314 117.111,283.519 116.296 C 282.723 115.481,281.989 114.815,281.887 114.815 C 281.785 114.815,282.353 115.481,283.148 116.296 M230.077 141.182 C 230.035 146.415,230.125 150.775,230.278 150.869 C 230.431 150.964,230.513 148.182,230.460 144.688 C 230.283 132.820,230.154 131.641,230.077 141.182 M55.211 132.407 C 55.211 132.611,55.450 133.194,55.741 133.704 C 56.032 134.213,56.270 134.463,56.270 134.259 C 56.270 134.056,56.032 133.472,55.741 132.963 C 55.450 132.454,55.211 132.204,55.211 132.407 M299.559 140.556 C 299.747 140.963,299.993 141.546,300.106 141.852 C 300.284 142.332,300.316 142.329,300.341 141.830 C 300.357 141.513,300.111 140.929,299.794 140.534 C 299.228 139.826,299.224 139.827,299.559 140.556 M60.137 142.130 C 60.480 142.792,60.823 143.333,60.901 143.333 C 61.239 143.333,60.608 141.832,60.088 141.401 C 59.604 140.999,59.611 141.112,60.137 142.130 M261.283 148.426 C 261.854 149.292,262.391 150.000,262.478 150.000 C 262.745 150.000,261.327 147.746,260.770 147.286 C 260.481 147.047,260.712 147.560,261.283 148.426 M380.086 152.222 C 380.086 152.935,380.162 153.227,380.255 152.870 C 380.348 152.514,380.348 151.931,380.255 151.574 C 380.162 151.218,380.086 151.509,380.086 152.222 M95.926 195.556 C 96.361 196.167,96.800 196.667,96.902 196.667 C 97.004 196.667,96.731 196.167,96.296 195.556 C 95.861 194.944,95.422 194.444,95.320 194.444 C 95.218 194.444,95.491 194.944,95.926 195.556 M184.855 211.389 C 186.605 213.293,188.763 215.400,190.091 216.500 C 190.550 216.881,189.262 215.490,187.229 213.411 C 183.374 209.468,182.069 208.356,184.855 211.389 M117.778 222.096 C 117.778 222.298,118.236 222.868,118.796 223.361 L 119.815 224.259 118.889 223.148 C 118.380 222.537,117.921 221.968,117.870 221.883 C 117.819 221.798,117.778 221.894,117.778 222.096 M333.227 226.389 C 333.392 226.644,336.525 229.766,340.190 233.328 L 346.852 239.805 340.004 232.865 C 333.401 226.175,332.575 225.385,333.227 226.389 M201.111 226.431 C 201.111 226.533,201.611 226.972,202.222 227.407 C 202.833 227.843,203.333 228.115,203.333 228.013 C 203.333 227.912,202.833 227.472,202.222 227.037 C 201.611 226.602,201.111 226.329,201.111 226.431 M210.638 233.731 C 211.091 234.203,211.554 234.495,211.668 234.381 C 211.782 234.268,211.411 233.882,210.845 233.524 L 209.815 232.874 210.638 233.731 M294.612 238.241 L 293.148 239.815 294.722 238.351 C 296.186 236.989,296.466 236.667,296.186 236.667 C 296.126 236.667,295.417 237.375,294.612 238.241 M132.565 239.011 C 133.508 240.050,133.711 240.178,133.692 239.722 C 133.686 239.569,133.227 239.124,132.674 238.733 L 131.667 238.022 132.565 239.011 M288.137 244.701 C 286.666 246.222,286.232 246.819,287.013 246.246 C 288.153 245.410,291.062 242.222,290.685 242.222 C 290.602 242.222,289.456 243.338,288.137 244.701 M352.593 245.741 C 353.284 246.454,353.932 247.037,354.034 247.037 C 354.136 247.037,353.654 246.454,352.963 245.741 C 352.272 245.028,351.623 244.444,351.521 244.444 C 351.420 244.444,351.902 245.028,352.593 245.741 M282.943 249.873 C 281.931 250.947,281.870 251.081,282.650 250.521 C 283.500 249.910,284.671 248.519,284.335 248.519 C 284.271 248.519,283.645 249.128,282.943 249.873 M363.745 256.942 C 365.454 258.723,367.435 260.677,368.148 261.284 C 368.861 261.891,367.531 260.434,365.193 258.046 C 362.855 255.658,360.873 253.704,360.790 253.704 C 360.707 253.704,362.037 255.161,363.745 256.942 M154.059 260.833 C 155.593 262.469,155.926 262.763,155.926 262.485 C 155.926 262.425,155.134 261.633,154.167 260.725 L 152.407 259.074 154.059 260.833 M369.630 262.708 C 369.630 262.772,370.171 263.314,370.833 263.912 L 372.037 265.000 370.949 263.796 C 369.935 262.674,369.630 262.422,369.630 262.708 M158.889 265.313 C 158.889 265.370,159.412 265.906,160.051 266.505 C 161.208 267.588,161.210 267.588,160.584 266.605 C 160.073 265.802,158.889 264.899,158.889 265.313 M375.000 268.148 C 376.620 269.778,378.029 271.111,378.131 271.111 C 378.233 271.111,376.990 269.778,375.370 268.148 C 373.750 266.519,372.341 265.185,372.240 265.185 C 372.138 265.185,373.380 266.519,375.000 268.148 M165.926 271.597 C 165.926 271.661,166.468 272.203,167.130 272.801 L 168.333 273.889 167.246 272.685 C 166.232 271.563,165.926 271.311,165.926 271.597 M380.370 273.519 C 381.477 274.639,382.465 275.556,382.567 275.556 C 382.669 275.556,381.847 274.639,380.741 273.519 C 379.634 272.398,378.646 271.481,378.544 271.481 C 378.442 271.481,379.264 272.398,380.370 273.519 M384.444 277.593 C 385.135 278.306,385.784 278.889,385.886 278.889 C 385.988 278.889,385.506 278.306,384.815 277.593 C 384.124 276.880,383.475 276.296,383.373 276.296 C 383.271 276.296,383.753 276.880,384.444 277.593 M181.083 284.937 C 182.027 285.976,182.230 286.104,182.211 285.648 C 182.204 285.495,181.746 285.050,181.192 284.659 L 180.185 283.948 181.083 284.937 M218.889 314.579 C 218.889 314.681,219.389 315.120,220.000 315.556 C 220.611 315.991,221.111 316.263,221.111 316.162 C 221.111 316.060,220.611 315.620,220.000 315.185 C 219.389 314.750,218.889 314.477,218.889 314.579 M369.057 324.167 L 367.593 325.741 369.167 324.277 C 370.631 322.915,370.911 322.593,370.631 322.593 C 370.570 322.593,369.862 323.301,369.057 324.167 M349.803 343.426 L 347.593 345.741 349.907 343.530 C 351.181 342.314,352.222 341.273,352.222 341.215 C 352.222 340.942,351.857 341.276,349.803 343.426 M263.735 342.731 C 264.116 343.072,266.296 344.074,266.296 343.908 C 266.296 343.695,264.243 342.593,263.846 342.593 C 263.700 342.593,263.650 342.655,263.735 342.731 M273.333 347.407 C 274.046 347.798,274.796 348.117,275.000 348.117 C 275.204 348.117,274.787 347.798,274.074 347.407 C 273.361 347.017,272.611 346.698,272.407 346.698 C 272.204 346.698,272.620 347.017,273.333 347.407 " stroke="none" fill="#f8741c" fill-rule="evenodd"></path><path id="path4" d="M118.979 12.315 C 123.063 16.001,122.935 15.905,120.940 13.795 C 119.929 12.726,118.959 11.852,118.784 11.852 C 118.609 11.852,118.696 12.060,118.979 12.315 M87.940 18.241 L 86.852 19.444 88.056 18.357 C 89.178 17.343,89.430 17.037,89.143 17.037 C 89.080 17.037,88.538 17.579,87.940 18.241 M125.741 18.889 C 126.536 19.704,127.271 20.370,127.373 20.370 C 127.474 20.370,126.907 19.704,126.111 18.889 C 125.315 18.074,124.581 17.407,124.479 17.407 C 124.377 17.407,124.945 18.074,125.741 18.889 M230.167 18.988 C 230.068 19.247,230.031 23.539,230.086 28.526 L 230.186 37.593 230.371 28.055 C 230.552 18.726,230.536 18.027,230.167 18.988 M134.059 27.222 C 140.333 33.568,159.980 53.109,160.297 53.319 C 160.439 53.413,153.640 46.538,145.187 38.041 C 136.734 29.544,129.743 22.593,129.650 22.593 C 129.558 22.593,131.542 24.676,134.059 27.222 M68.310 37.500 L 67.222 38.704 68.426 37.616 C 69.088 37.018,69.630 36.476,69.630 36.412 C 69.630 36.126,69.324 36.378,68.310 37.500 M56.846 48.958 C 54.608 51.237,53.073 52.880,53.434 52.610 C 53.919 52.246,59.239 46.937,61.080 44.979 C 61.165 44.889,61.162 44.815,61.074 44.815 C 60.986 44.815,59.083 46.679,56.846 48.958 M321.111 49.024 C 321.111 49.125,321.611 49.565,322.222 50.000 C 322.833 50.435,323.333 50.708,323.333 50.606 C 323.333 50.504,322.833 50.065,322.222 49.630 C 321.611 49.194,321.111 48.922,321.111 49.024 M161.158 54.350 C 161.438 54.706,161.841 55.164,162.055 55.369 C 162.268 55.573,164.851 58.071,167.795 60.919 L 173.148 66.098 167.041 59.901 C 161.336 54.112,159.921 52.776,161.158 54.350 M332.778 59.124 C 332.981 59.303,333.731 59.949,334.443 60.558 L 335.738 61.667 334.813 60.614 C 334.305 60.035,333.556 59.390,333.148 59.180 C 332.741 58.970,332.574 58.945,332.778 59.124 M337.407 63.449 C 337.407 63.513,337.949 64.055,338.611 64.653 L 339.815 65.741 338.727 64.537 C 337.713 63.415,337.407 63.163,337.407 63.449 M340.370 66.412 C 340.370 66.476,340.912 67.018,341.574 67.616 L 342.778 68.704 341.690 67.500 C 340.676 66.378,340.370 66.126,340.370 66.412 M317.017 70.489 C 317.719 71.238,318.339 71.852,318.394 71.852 C 318.770 71.852,317.901 70.776,316.919 70.026 L 315.741 69.125 317.017 70.489 M322.118 75.193 C 322.773 75.881,323.372 76.369,323.449 76.277 C 323.526 76.186,322.989 75.623,322.257 75.027 L 320.926 73.943 322.118 75.193 M230.161 84.630 C 230.162 89.926,230.214 92.041,230.277 89.330 C 230.340 86.619,230.340 82.286,230.277 79.700 C 230.213 77.115,230.161 79.333,230.161 84.630 M327.037 80.232 C 327.037 80.427,327.829 81.330,328.796 82.238 L 330.556 83.889 328.889 82.044 C 327.972 81.029,327.181 80.126,327.130 80.038 C 327.079 79.949,327.037 80.036,327.037 80.232 M281.298 90.372 C 281.546 90.774,283.704 91.976,283.704 91.713 C 283.704 91.626,283.110 91.205,282.385 90.777 C 281.660 90.349,281.171 90.167,281.298 90.372 M337.037 92.343 C 337.037 92.730,339.384 95.924,339.548 95.761 C 339.633 95.676,339.103 94.821,338.370 93.861 C 337.637 92.901,337.037 92.218,337.037 92.343 M362.071 96.481 C 362.405 96.991,362.738 97.407,362.812 97.407 C 362.886 97.407,362.757 96.991,362.525 96.481 C 362.293 95.972,361.960 95.556,361.784 95.556 C 361.608 95.556,361.737 95.972,362.071 96.481 M294.126 100.316 C 294.361 100.693,294.904 101.214,295.333 101.473 C 295.878 101.803,295.785 101.597,295.023 100.787 C 293.785 99.469,293.506 99.323,294.126 100.316 M160.741 105.741 C 159.223 107.269,158.065 108.519,158.167 108.519 C 158.269 108.519,159.594 107.269,161.111 105.741 C 162.629 104.213,163.787 102.963,163.685 102.963 C 163.583 102.963,162.258 104.213,160.741 105.741 M298.200 104.390 C 298.435 104.767,298.979 105.288,299.407 105.547 C 299.952 105.877,299.859 105.672,299.097 104.861 C 297.859 103.544,297.580 103.397,298.200 104.390 M283.148 116.296 C 283.944 117.111,284.678 117.778,284.780 117.778 C 284.882 117.778,284.314 117.111,283.519 116.296 C 282.723 115.481,281.989 114.815,281.887 114.815 C 281.785 114.815,282.353 115.481,283.148 116.296 M230.077 141.182 C 230.035 146.415,230.125 150.775,230.278 150.869 C 230.431 150.964,230.513 148.182,230.460 144.688 C 230.283 132.820,230.154 131.641,230.077 141.182 M55.211 132.407 C 55.211 132.611,55.450 133.194,55.741 133.704 C 56.032 134.213,56.270 134.463,56.270 134.259 C 56.270 134.056,56.032 133.472,55.741 132.963 C 55.450 132.454,55.211 132.204,55.211 132.407 M299.559 140.556 C 299.747 140.963,299.993 141.546,300.106 141.852 C 300.284 142.332,300.316 142.329,300.341 141.830 C 300.357 141.513,300.111 140.929,299.794 140.534 C 299.228 139.826,299.224 139.827,299.559 140.556 M60.137 142.130 C 60.480 142.792,60.823 143.333,60.901 143.333 C 61.239 143.333,60.608 141.832,60.088 141.401 C 59.604 140.999,59.611 141.112,60.137 142.130 M261.283 148.426 C 261.854 149.292,262.391 150.000,262.478 150.000 C 262.745 150.000,261.327 147.746,260.770 147.286 C 260.481 147.047,260.712 147.560,261.283 148.426 M380.086 152.222 C 380.086 152.935,380.162 153.227,380.255 152.870 C 380.348 152.514,380.348 151.931,380.255 151.574 C 380.162 151.218,380.086 151.509,380.086 152.222 M95.926 195.556 C 96.361 196.167,96.800 196.667,96.902 196.667 C 97.004 196.667,96.731 196.167,96.296 195.556 C 95.861 194.944,95.422 194.444,95.320 194.444 C 95.218 194.444,95.491 194.944,95.926 195.556 M184.855 211.389 C 186.605 213.293,188.763 215.400,190.091 216.500 C 190.550 216.881,189.262 215.490,187.229 213.411 C 183.374 209.468,182.069 208.356,184.855 211.389 M117.778 222.096 C 117.778 222.298,118.236 222.868,118.796 223.361 L 119.815 224.259 118.889 223.148 C 118.380 222.537,117.921 221.968,117.870 221.883 C 117.819 221.798,117.778 221.894,117.778 222.096 M333.227 226.389 C 333.392 226.644,336.525 229.766,340.190 233.328 L 346.852 239.805 340.004 232.865 C 333.401 226.175,332.575 225.385,333.227 226.389 M201.111 226.431 C 201.111 226.533,201.611 226.972,202.222 227.407 C 202.833 227.843,203.333 228.115,203.333 228.013 C 203.333 227.912,202.833 227.472,202.222 227.037 C 201.611 226.602,201.111 226.329,201.111 226.431 M210.638 233.731 C 211.091 234.203,211.554 234.495,211.668 234.381 C 211.782 234.268,211.411 233.882,210.845 233.524 L 209.815 232.874 210.638 233.731 M294.612 238.241 L 293.148 239.815 294.722 238.351 C 296.186 236.989,296.466 236.667,296.186 236.667 C 296.126 236.667,295.417 237.375,294.612 238.241 M132.565 239.011 C 133.508 240.050,133.711 240.178,133.692 239.722 C 133.686 239.569,133.227 239.124,132.674 238.733 L 131.667 238.022 132.565 239.011 M288.137 244.701 C 286.666 246.222,286.232 246.819,287.013 246.246 C 288.153 245.410,291.062 242.222,290.685 242.222 C 290.602 242.222,289.456 243.338,288.137 244.701 M352.593 245.741 C 353.284 246.454,353.932 247.037,354.034 247.037 C 354.136 247.037,353.654 246.454,352.963 245.741 C 352.272 245.028,351.623 244.444,351.521 244.444 C 351.420 244.444,351.902 245.028,352.593 245.741 M282.943 249.873 C 281.931 250.947,281.870 251.081,282.650 250.521 C 283.500 249.910,284.671 248.519,284.335 248.519 C 284.271 248.519,283.645 249.128,282.943 249.873 M363.745 256.942 C 365.454 258.723,367.435 260.677,368.148 261.284 C 368.861 261.891,367.531 260.434,365.193 258.046 C 362.855 255.658,360.873 253.704,360.790 253.704 C 360.707 253.704,362.037 255.161,363.745 256.942 M154.059 260.833 C 155.593 262.469,155.926 262.763,155.926 262.485 C 155.926 262.425,155.134 261.633,154.167 260.725 L 152.407 259.074 154.059 260.833 M369.630 262.708 C 369.630 262.772,370.171 263.314,370.833 263.912 L 372.037 265.000 370.949 263.796 C 369.935 262.674,369.630 262.422,369.630 262.708 M158.889 265.313 C 158.889 265.370,159.412 265.906,160.051 266.505 C 161.208 267.588,161.210 267.588,160.584 266.605 C 160.073 265.802,158.889 264.899,158.889 265.313 M375.000 268.148 C 376.620 269.778,378.029 271.111,378.131 271.111 C 378.233 271.111,376.990 269.778,375.370 268.148 C 373.750 266.519,372.341 265.185,372.240 265.185 C 372.138 265.185,373.380 266.519,375.000 268.148 M165.926 271.597 C 165.926 271.661,166.468 272.203,167.130 272.801 L 168.333 273.889 167.246 272.685 C 166.232 271.563,165.926 271.311,165.926 271.597 M380.370 273.519 C 381.477 274.639,382.465 275.556,382.567 275.556 C 382.669 275.556,381.847 274.639,380.741 273.519 C 379.634 272.398,378.646 271.481,378.544 271.481 C 378.442 271.481,379.264 272.398,380.370 273.519 M384.444 277.593 C 385.135 278.306,385.784 278.889,385.886 278.889 C 385.988 278.889,385.506 278.306,384.815 277.593 C 384.124 276.880,383.475 276.296,383.373 276.296 C 383.271 276.296,383.753 276.880,384.444 277.593 M181.083 284.937 C 182.027 285.976,182.230 286.104,182.211 285.648 C 182.204 285.495,181.746 285.050,181.192 284.659 L 180.185 283.948 181.083 284.937 M218.889 314.579 C 218.889 314.681,219.389 315.120,220.000 315.556 C 220.611 315.991,221.111 316.263,221.111 316.162 C 221.111 316.060,220.611 315.620,220.000 315.185 C 219.389 314.750,218.889 314.477,218.889 314.579 M369.057 324.167 L 367.593 325.741 369.167 324.277 C 370.631 322.915,370.911 322.593,370.631 322.593 C 370.570 322.593,369.862 323.301,369.057 324.167 M349.803 343.426 L 347.593 345.741 349.907 343.530 C 351.181 342.314,352.222 341.273,352.222 341.215 C 352.222 340.942,351.857 341.276,349.803 343.426 M263.735 342.731 C 264.116 343.072,266.296 344.074,266.296 343.908 C 266.296 343.695,264.243 342.593,263.846 342.593 C 263.700 342.593,263.650 342.655,263.735 342.731 M273.333 347.407 C 274.046 347.798,274.796 348.117,275.000 348.117 C 275.204 348.117,274.787 347.798,274.074 347.407 C 273.361 347.017,272.611 346.698,272.407 346.698 C 272.204 346.698,272.620 347.017,273.333 347.407 " stroke="none" fill="#f8741c" fill-rule="evenodd"></path></g></svg>