<svg id="svg" version="1.1" xmlns="http://www.w3.org/2000/svg" xmlns:xlink="http://www.w3.org/1999/xlink" width="400" height="400" viewBox="0, 0, 400,400"><g id="svgg"><path id="path0" d="M160.318 123.648 C 158.298 124.591,155.849 126.706,149.907 132.639 C 146.903 135.639,144.444 138.027,144.444 137.946 C 144.444 137.865,143.893 138.336,143.218 138.992 C 142.543 139.648,142.031 140.243,142.080 140.313 C 142.129 140.383,141.592 140.947,140.887 141.566 C 140.182 142.185,139.680 142.766,139.772 142.858 C 139.863 142.950,139.638 143.325,139.271 143.692 C 137.119 145.844,135.940 153.429,137.012 158.229 C 137.207 159.101,137.465 160.398,137.586 161.111 C 137.815 162.467,138.831 165.475,139.275 166.111 C 139.417 166.315,139.730 167.148,139.970 167.963 C 140.427 169.509,144.102 176.988,145.976 180.185 C 146.573 181.204,147.250 182.412,147.479 182.870 C 147.709 183.329,148.037 183.704,148.208 183.704 C 148.379 183.704,148.519 183.875,148.519 184.085 C 148.519 184.441,151.806 189.415,153.406 191.480 C 153.801 191.990,155.038 193.657,156.154 195.185 C 159.058 199.158,159.722 200.029,160.556 200.959 C 160.963 201.413,162.046 202.734,162.963 203.895 C 163.880 205.056,165.150 206.547,165.785 207.208 C 166.420 207.870,167.087 208.673,167.266 208.992 C 168.443 211.087,187.060 230.000,187.946 230.000 C 188.057 230.000,188.456 230.292,188.832 230.648 C 192.314 233.950,193.515 234.974,199.027 239.342 C 199.612 239.806,200.308 240.394,200.574 240.648 C 200.840 240.903,201.155 241.111,201.273 241.111 C 201.391 241.111,201.945 241.518,202.503 242.016 C 203.062 242.513,203.670 242.915,203.856 242.908 C 204.041 242.902,204.341 243.162,204.522 243.485 C 204.703 243.809,205.093 244.074,205.389 244.074 C 205.684 244.074,205.926 244.209,205.926 244.373 C 205.926 244.709,207.612 245.943,213.458 249.886 C 215.666 251.375,217.610 252.593,217.779 252.593 C 217.948 252.593,218.142 252.718,218.210 252.870 C 218.278 253.023,219.625 253.806,221.204 254.609 C 222.782 255.413,224.074 256.215,224.074 256.391 C 224.074 256.566,224.227 256.616,224.413 256.501 C 224.599 256.386,224.807 256.418,224.876 256.572 C 225.031 256.921,229.245 258.995,231.481 259.822 C 232.398 260.162,233.481 260.584,233.889 260.761 C 234.496 261.025,238.589 262.277,239.259 262.405 C 239.361 262.424,240.588 262.663,241.985 262.936 C 246.508 263.820,253.529 262.869,255.573 261.096 C 256.033 260.697,256.534 260.370,256.686 260.370 C 257.513 260.370,274.599 242.704,275.311 241.111 C 275.539 240.602,275.813 240.102,275.920 240.000 C 276.961 239.010,277.214 236.243,276.424 234.500 C 275.765 233.050,252.749 209.630,251.982 209.630 C 251.741 209.630,251.479 209.438,251.401 209.203 C 250.966 207.899,243.704 208.988,243.704 210.357 C 243.704 210.568,243.470 210.741,243.183 210.741 C 242.897 210.741,240.156 213.166,237.092 216.130 L 231.522 221.520 228.076 221.662 C 226.121 221.742,223.428 221.586,221.852 221.302 C 219.194 220.822,218.586 220.671,217.130 220.129 C 216.773 219.997,216.291 219.847,216.058 219.797 C 215.825 219.748,214.364 219.112,212.812 218.385 C 211.259 217.657,209.884 217.071,209.758 217.081 C 209.631 217.092,209.425 216.961,209.301 216.791 C 209.176 216.621,208.491 216.165,207.778 215.777 C 205.879 214.746,201.547 211.560,199.630 209.785 C 198.713 208.937,197.296 207.622,196.481 206.864 C 195.667 206.106,194.458 205.065,193.796 204.551 C 193.134 204.037,192.593 203.403,192.593 203.144 C 192.593 202.884,192.365 202.585,192.087 202.478 C 191.809 202.371,190.783 201.228,189.807 199.938 C 188.831 198.648,187.891 197.537,187.720 197.469 C 187.548 197.401,187.407 197.194,187.407 197.009 C 187.407 196.824,186.866 195.959,186.204 195.086 C 185.129 193.668,181.320 187.160,181.281 186.674 C 181.272 186.568,180.886 185.648,180.423 184.630 C 179.961 183.611,179.409 181.944,179.198 180.926 C 178.987 179.907,178.677 178.407,178.510 177.593 C 177.638 173.346,178.207 168.190,179.702 166.784 C 181.590 165.010,187.407 159.165,187.407 159.043 C 187.407 158.979,187.845 158.460,188.380 157.889 C 191.597 154.459,192.299 150.772,190.278 147.919 C 188.285 145.104,167.359 124.441,165.772 123.720 C 163.904 122.872,162.034 122.847,160.318 123.648 M211.934 131.107 C 211.932 133.607,212.073 134.913,212.354 135.000 C 212.587 135.073,214.458 135.222,216.512 135.332 C 218.566 135.442,220.483 135.612,220.772 135.711 C 221.060 135.810,221.796 135.976,222.407 136.079 C 224.392 136.415,226.822 137.046,228.199 137.583 C 228.940 137.872,229.648 138.006,229.773 137.881 C 229.898 137.757,230.000 137.849,230.000 138.086 C 230.000 138.324,230.241 138.519,230.535 138.519 C 230.829 138.519,232.371 139.129,233.961 139.875 C 235.551 140.621,236.935 141.251,237.037 141.274 C 239.414 141.825,248.566 149.293,252.037 153.515 C 252.852 154.506,253.727 155.525,253.981 155.780 C 254.236 156.035,254.444 156.408,254.444 156.609 C 254.444 156.811,254.569 157.031,254.722 157.099 C 255.062 157.250,256.667 159.508,256.667 159.835 C 256.667 159.965,257.042 160.596,257.500 161.237 C 259.175 163.580,261.624 169.164,262.645 172.963 C 263.159 174.879,264.332 180.470,264.353 181.111 C 264.591 188.154,264.622 188.203,268.922 188.070 L 272.407 187.963 272.375 186.481 C 272.299 182.998,271.618 177.092,271.094 175.370 C 270.908 174.759,270.662 173.654,270.547 172.914 C 270.432 172.175,270.003 170.675,269.592 169.581 C 269.182 168.487,268.790 167.341,268.721 167.033 C 268.451 165.829,265.607 159.797,264.270 157.593 C 263.776 156.778,263.214 155.778,263.021 155.370 C 262.828 154.963,262.226 154.130,261.684 153.519 C 261.141 152.907,260.453 151.949,260.154 151.389 C 259.855 150.829,259.448 150.370,259.250 150.370 C 259.051 150.370,258.889 150.187,258.889 149.963 C 258.889 149.363,254.592 144.790,251.441 142.037 C 249.791 140.595,246.822 138.355,245.533 137.578 C 245.181 137.366,244.668 137.008,244.391 136.782 C 243.024 135.661,234.655 131.640,232.963 131.290 C 232.861 131.269,232.194 130.998,231.481 130.688 C 230.218 130.140,227.421 129.355,225.556 129.026 C 225.046 128.936,224.130 128.706,223.519 128.516 C 222.907 128.326,222.074 128.227,221.667 128.296 C 221.259 128.366,220.652 128.281,220.316 128.108 C 219.981 127.935,217.958 127.692,215.822 127.569 L 211.937 127.345 211.934 131.107 M211.966 153.807 L 211.926 157.650 215.500 158.087 C 220.006 158.637,220.293 158.688,220.607 159.002 C 220.748 159.143,221.073 159.259,221.327 159.259 C 221.582 159.259,222.596 159.620,223.580 160.061 C 224.565 160.501,225.495 160.835,225.648 160.801 C 225.801 160.768,225.926 160.907,225.926 161.111 C 225.926 161.315,226.219 161.481,226.578 161.481 C 226.936 161.481,227.669 161.888,228.205 162.385 C 228.741 162.883,229.257 163.212,229.351 163.118 C 229.814 162.655,238.556 172.528,238.887 173.889 C 238.937 174.093,239.136 174.676,239.330 175.185 C 239.523 175.694,239.667 176.155,239.648 176.208 C 239.630 176.261,239.847 176.761,240.131 177.319 C 240.680 178.396,241.639 182.550,242.118 185.926 L 242.407 187.963 246.224 188.069 L 250.040 188.174 249.835 186.772 C 249.722 186.001,249.553 184.620,249.459 183.704 C 249.088 180.082,248.851 178.774,248.344 177.561 C 248.053 176.865,247.882 176.296,247.963 176.296 C 248.376 176.296,244.124 167.454,243.332 166.667 C 243.230 166.565,242.653 165.755,242.050 164.866 C 240.736 162.931,235.681 158.165,233.342 156.656 C 232.421 156.061,231.490 155.427,231.273 155.245 C 231.057 155.064,230.307 154.657,229.607 154.342 C 225.971 152.704,223.749 151.790,223.115 151.671 C 222.726 151.598,222.366 151.505,222.315 151.464 C 222.184 151.358,221.882 151.291,220.000 150.953 C 219.083 150.788,218.000 150.584,217.593 150.500 C 217.185 150.415,215.762 150.260,214.429 150.154 L 212.007 149.963 211.966 153.807 M212.091 174.011 C 211.643 177.284,211.846 180.369,212.512 180.398 C 215.473 180.526,218.525 182.807,219.131 185.344 C 219.280 185.970,219.433 186.606,219.470 186.759 C 219.507 186.912,219.558 187.287,219.583 187.593 C 219.654 188.439,226.858 188.407,227.184 187.559 C 227.308 187.235,227.342 186.860,227.260 186.726 C 227.178 186.591,227.005 185.815,226.876 185.000 C 226.008 179.509,220.391 173.797,215.185 173.114 C 214.472 173.020,213.526 172.878,213.083 172.798 C 212.400 172.674,212.249 172.858,212.091 174.011 " stroke="none" fill="#f4741c" fill-rule="evenodd"></path><path id="path1" d="M169.259 126.481 C 170.366 127.602,171.354 128.519,171.456 128.519 C 171.558 128.519,170.736 127.602,169.630 126.481 C 168.523 125.361,167.535 124.444,167.433 124.444 C 167.331 124.444,168.153 125.361,169.259 126.481 M177.407 134.560 C 177.407 134.624,177.949 135.166,178.611 135.764 L 179.815 136.852 178.727 135.648 C 177.713 134.526,177.407 134.274,177.407 134.560 M145.374 136.663 C 143.922 138.179,144.329 138.255,145.913 136.764 C 146.619 136.099,147.026 135.556,146.816 135.556 C 146.606 135.556,145.958 136.054,145.374 136.663 M181.667 138.889 C 182.670 139.907,183.574 140.741,183.676 140.741 C 183.778 140.741,183.040 139.907,182.037 138.889 C 181.034 137.870,180.130 137.037,180.028 137.037 C 179.926 137.037,180.663 137.870,181.667 138.889 M186.296 143.519 C 187.609 144.843,188.766 145.926,188.867 145.926 C 188.969 145.926,187.979 144.843,186.667 143.519 C 185.354 142.194,184.197 141.111,184.095 141.111 C 183.994 141.111,184.984 142.194,186.296 143.519 M256.296 146.852 C 256.987 147.565,257.636 148.148,257.738 148.148 C 257.840 148.148,257.358 147.565,256.667 146.852 C 255.976 146.139,255.327 145.556,255.225 145.556 C 255.123 145.556,255.605 146.139,256.296 146.852 M185.717 160.833 L 184.630 162.037 185.833 160.949 C 186.955 159.935,187.207 159.630,186.921 159.630 C 186.857 159.630,186.316 160.171,185.717 160.833 M229.271 163.241 C 229.277 163.394,229.736 163.838,230.289 164.230 L 231.296 164.941 230.398 163.952 C 229.455 162.913,229.252 162.785,229.271 163.241 M179.674 166.737 C 179.038 167.387,178.519 168.081,178.519 168.280 C 178.519 168.479,178.560 168.571,178.611 168.484 C 178.662 168.396,179.278 167.702,179.980 166.940 C 181.535 165.254,181.285 165.088,179.674 166.737 M139.321 167.056 C 139.538 167.677,139.784 168.117,139.868 168.033 C 140.051 167.850,139.353 165.926,139.103 165.926 C 139.006 165.926,139.105 166.434,139.321 167.056 M245.216 169.815 C 245.216 170.019,245.536 170.769,245.926 171.481 C 246.316 172.194,246.636 172.611,246.636 172.407 C 246.636 172.204,246.316 171.454,245.926 170.741 C 245.536 170.028,245.216 169.611,245.216 169.815 M237.329 172.025 C 237.881 172.936,238.466 173.686,238.629 173.692 C 238.791 173.698,238.408 172.954,237.778 172.037 C 236.302 169.893,236.031 169.885,237.329 172.025 M179.304 181.481 C 179.298 181.787,179.522 182.537,179.801 183.148 C 180.456 184.579,180.466 183.913,179.815 182.222 C 179.540 181.509,179.310 181.176,179.304 181.481 M190.328 200.681 C 190.740 201.259,191.369 201.968,191.727 202.255 C 192.085 202.543,191.815 202.069,191.127 201.204 C 189.714 199.426,189.190 199.083,190.328 200.681 M192.593 203.178 C 192.593 203.381,193.343 204.174,194.259 204.940 C 195.176 205.706,195.926 206.276,195.926 206.207 C 195.926 206.137,195.176 205.344,194.259 204.444 C 193.343 203.545,192.593 202.975,192.593 203.178 M200.370 210.505 C 200.370 210.607,200.870 211.046,201.481 211.481 C 202.093 211.917,202.593 212.189,202.593 212.087 C 202.593 211.986,202.093 211.546,201.481 211.111 C 200.870 210.676,200.370 210.403,200.370 210.505 M259.074 216.296 C 261.308 218.537,263.219 220.370,263.321 220.370 C 263.423 220.370,261.678 218.537,259.444 216.296 C 257.211 214.056,255.300 212.222,255.198 212.222 C 255.096 212.222,256.840 214.056,259.074 216.296 M269.630 226.852 C 270.321 227.565,270.969 228.148,271.071 228.148 C 271.173 228.148,270.691 227.565,270.000 226.852 C 269.309 226.139,268.660 225.556,268.558 225.556 C 268.457 225.556,268.939 226.139,269.630 226.852 M263.875 253.426 L 262.037 255.370 263.981 253.532 C 265.788 251.825,266.096 251.481,265.819 251.481 C 265.761 251.481,264.886 252.356,263.875 253.426 M222.756 255.753 C 223.151 256.052,223.642 256.296,223.845 256.296 C 224.049 256.296,223.892 256.052,223.497 255.753 C 223.101 255.453,222.611 255.209,222.407 255.209 C 222.204 255.209,222.361 255.453,222.756 255.753 " stroke="none" fill="#f8741c" fill-rule="evenodd"></path><path id="path2" d="M169.259 126.481 C 170.366 127.602,171.354 128.519,171.456 128.519 C 171.558 128.519,170.736 127.602,169.630 126.481 C 168.523 125.361,167.535 124.444,167.433 124.444 C 167.331 124.444,168.153 125.361,169.259 126.481 M177.407 134.560 C 177.407 134.624,177.949 135.166,178.611 135.764 L 179.815 136.852 178.727 135.648 C 177.713 134.526,177.407 134.274,177.407 134.560 M145.374 136.663 C 143.922 138.179,144.329 138.255,145.913 136.764 C 146.619 136.099,147.026 135.556,146.816 135.556 C 146.606 135.556,145.958 136.054,145.374 136.663 M181.667 138.889 C 182.670 139.907,183.574 140.741,183.676 140.741 C 183.778 140.741,183.040 139.907,182.037 138.889 C 181.034 137.870,180.130 137.037,180.028 137.037 C 179.926 137.037,180.663 137.870,181.667 138.889 M186.296 143.519 C 187.609 144.843,188.766 145.926,188.867 145.926 C 188.969 145.926,187.979 144.843,186.667 143.519 C 185.354 142.194,184.197 141.111,184.095 141.111 C 183.994 141.111,184.984 142.194,186.296 143.519 M256.296 146.852 C 256.987 147.565,257.636 148.148,257.738 148.148 C 257.840 148.148,257.358 147.565,256.667 146.852 C 255.976 146.139,255.327 145.556,255.225 145.556 C 255.123 145.556,255.605 146.139,256.296 146.852 M185.717 160.833 L 184.630 162.037 185.833 160.949 C 186.955 159.935,187.207 159.630,186.921 159.630 C 186.857 159.630,186.316 160.171,185.717 160.833 M229.271 163.241 C 229.277 163.394,229.736 163.838,230.289 164.230 L 231.296 164.941 230.398 163.952 C 229.455 162.913,229.252 162.785,229.271 163.241 M179.674 166.737 C 179.038 167.387,178.519 168.081,178.519 168.280 C 178.519 168.479,178.560 168.571,178.611 168.484 C 178.662 168.396,179.278 167.702,179.980 166.940 C 181.535 165.254,181.285 165.088,179.674 166.737 M139.321 167.056 C 139.538 167.677,139.784 168.117,139.868 168.033 C 140.051 167.850,139.353 165.926,139.103 165.926 C 139.006 165.926,139.105 166.434,139.321 167.056 M245.216 169.815 C 245.216 170.019,245.536 170.769,245.926 171.481 C 246.316 172.194,246.636 172.611,246.636 172.407 C 246.636 172.204,246.316 171.454,245.926 170.741 C 245.536 170.028,245.216 169.611,245.216 169.815 M237.329 172.025 C 237.881 172.936,238.466 173.686,238.629 173.692 C 238.791 173.698,238.408 172.954,237.778 172.037 C 236.302 169.893,236.031 169.885,237.329 172.025 M179.304 181.481 C 179.298 181.787,179.522 182.537,179.801 183.148 C 180.456 184.579,180.466 183.913,179.815 182.222 C 179.540 181.509,179.310 181.176,179.304 181.481 M190.328 200.681 C 190.740 201.259,191.369 201.968,191.727 202.255 C 192.085 202.543,191.815 202.069,191.127 201.204 C 189.714 199.426,189.190 199.083,190.328 200.681 M192.593 203.178 C 192.593 203.381,193.343 204.174,194.259 204.940 C 195.176 205.706,195.926 206.276,195.926 206.207 C 195.926 206.137,195.176 205.344,194.259 204.444 C 193.343 203.545,192.593 202.975,192.593 203.178 M200.370 210.505 C 200.370 210.607,200.870 211.046,201.481 211.481 C 202.093 211.917,202.593 212.189,202.593 212.087 C 202.593 211.986,202.093 211.546,201.481 211.111 C 200.870 210.676,200.370 210.403,200.370 210.505 M259.074 216.296 C 261.308 218.537,263.219 220.370,263.321 220.370 C 263.423 220.370,261.678 218.537,259.444 216.296 C 257.211 214.056,255.300 212.222,255.198 212.222 C 255.096 212.222,256.840 214.056,259.074 216.296 M269.630 226.852 C 270.321 227.565,270.969 228.148,271.071 228.148 C 271.173 228.148,270.691 227.565,270.000 226.852 C 269.309 226.139,268.660 225.556,268.558 225.556 C 268.457 225.556,268.939 226.139,269.630 226.852 M263.875 253.426 L 262.037 255.370 263.981 253.532 C 265.788 251.825,266.096 251.481,265.819 251.481 C 265.761 251.481,264.886 252.356,263.875 253.426 M222.756 255.753 C 223.151 256.052,223.642 256.296,223.845 256.296 C 224.049 256.296,223.892 256.052,223.497 255.753 C 223.101 255.453,222.611 255.209,222.407 255.209 C 222.204 255.209,222.361 255.453,222.756 255.753 " stroke="none" fill="#f8741c" fill-rule="evenodd"></path><path id="path3" d="M169.259 126.481 C 170.366 127.602,171.354 128.519,171.456 128.519 C 171.558 128.519,170.736 127.602,169.630 126.481 C 168.523 125.361,167.535 124.444,167.433 124.444 C 167.331 124.444,168.153 125.361,169.259 126.481 M177.407 134.560 C 177.407 134.624,177.949 135.166,178.611 135.764 L 179.815 136.852 178.727 135.648 C 177.713 134.526,177.407 134.274,177.407 134.560 M145.374 136.663 C 143.922 138.179,144.329 138.255,145.913 136.764 C 146.619 136.099,147.026 135.556,146.816 135.556 C 146.606 135.556,145.958 136.054,145.374 136.663 M181.667 138.889 C 182.670 139.907,183.574 140.741,183.676 140.741 C 183.778 140.741,183.040 139.907,182.037 138.889 C 181.034 137.870,180.130 137.037,180.028 137.037 C 179.926 137.037,180.663 137.870,181.667 138.889 M186.296 143.519 C 187.609 144.843,188.766 145.926,188.867 145.926 C 188.969 145.926,187.979 144.843,186.667 143.519 C 185.354 142.194,184.197 141.111,184.095 141.111 C 183.994 141.111,184.984 142.194,186.296 143.519 M256.296 146.852 C 256.987 147.565,257.636 148.148,257.738 148.148 C 257.840 148.148,257.358 147.565,256.667 146.852 C 255.976 146.139,255.327 145.556,255.225 145.556 C 255.123 145.556,255.605 146.139,256.296 146.852 M185.717 160.833 L 184.630 162.037 185.833 160.949 C 186.955 159.935,187.207 159.630,186.921 159.630 C 186.857 159.630,186.316 160.171,185.717 160.833 M229.271 163.241 C 229.277 163.394,229.736 163.838,230.289 164.230 L 231.296 164.941 230.398 163.952 C 229.455 162.913,229.252 162.785,229.271 163.241 M179.674 166.737 C 179.038 167.387,178.519 168.081,178.519 168.280 C 178.519 168.479,178.560 168.571,178.611 168.484 C 178.662 168.396,179.278 167.702,179.980 166.940 C 181.535 165.254,181.285 165.088,179.674 166.737 M139.321 167.056 C 139.538 167.677,139.784 168.117,139.868 168.033 C 140.051 167.850,139.353 165.926,139.103 165.926 C 139.006 165.926,139.105 166.434,139.321 167.056 M245.216 169.815 C 245.216 170.019,245.536 170.769,245.926 171.481 C 246.316 172.194,246.636 172.611,246.636 172.407 C 246.636 172.204,246.316 171.454,245.926 170.741 C 245.536 170.028,245.216 169.611,245.216 169.815 M237.329 172.025 C 237.881 172.936,238.466 173.686,238.629 173.692 C 238.791 173.698,238.408 172.954,237.778 172.037 C 236.302 169.893,236.031 169.885,237.329 172.025 M179.304 181.481 C 179.298 181.787,179.522 182.537,179.801 183.148 C 180.456 184.579,180.466 183.913,179.815 182.222 C 179.540 181.509,179.310 181.176,179.304 181.481 M190.328 200.681 C 190.740 201.259,191.369 201.968,191.727 202.255 C 192.085 202.543,191.815 202.069,191.127 201.204 C 189.714 199.426,189.190 199.083,190.328 200.681 M192.593 203.178 C 192.593 203.381,193.343 204.174,194.259 204.940 C 195.176 205.706,195.926 206.276,195.926 206.207 C 195.926 206.137,195.176 205.344,194.259 204.444 C 193.343 203.545,192.593 202.975,192.593 203.178 M200.370 210.505 C 200.370 210.607,200.870 211.046,201.481 211.481 C 202.093 211.917,202.593 212.189,202.593 212.087 C 202.593 211.986,202.093 211.546,201.481 211.111 C 200.870 210.676,200.370 210.403,200.370 210.505 M259.074 216.296 C 261.308 218.537,263.219 220.370,263.321 220.370 C 263.423 220.370,261.678 218.537,259.444 216.296 C 257.211 214.056,255.300 212.222,255.198 212.222 C 255.096 212.222,256.840 214.056,259.074 216.296 M269.630 226.852 C 270.321 227.565,270.969 228.148,271.071 228.148 C 271.173 228.148,270.691 227.565,270.000 226.852 C 269.309 226.139,268.660 225.556,268.558 225.556 C 268.457 225.556,268.939 226.139,269.630 226.852 M263.875 253.426 L 262.037 255.370 263.981 253.532 C 265.788 251.825,266.096 251.481,265.819 251.481 C 265.761 251.481,264.886 252.356,263.875 253.426 M222.756 255.753 C 223.151 256.052,223.642 256.296,223.845 256.296 C 224.049 256.296,223.892 256.052,223.497 255.753 C 223.101 255.453,222.611 255.209,222.407 255.209 C 222.204 255.209,222.361 255.453,222.756 255.753 " stroke="none" fill="#f8741c" fill-rule="evenodd"></path><path id="path4" d="M169.259 126.481 C 170.366 127.602,171.354 128.519,171.456 128.519 C 171.558 128.519,170.736 127.602,169.630 126.481 C 168.523 125.361,167.535 124.444,167.433 124.444 C 167.331 124.444,168.153 125.361,169.259 126.481 M177.407 134.560 C 177.407 134.624,177.949 135.166,178.611 135.764 L 179.815 136.852 178.727 135.648 C 177.713 134.526,177.407 134.274,177.407 134.560 M145.374 136.663 C 143.922 138.179,144.329 138.255,145.913 136.764 C 146.619 136.099,147.026 135.556,146.816 135.556 C 146.606 135.556,145.958 136.054,145.374 136.663 M181.667 138.889 C 182.670 139.907,183.574 140.741,183.676 140.741 C 183.778 140.741,183.040 139.907,182.037 138.889 C 181.034 137.870,180.130 137.037,180.028 137.037 C 179.926 137.037,180.663 137.870,181.667 138.889 M186.296 143.519 C 187.609 144.843,188.766 145.926,188.867 145.926 C 188.969 145.926,187.979 144.843,186.667 143.519 C 185.354 142.194,184.197 141.111,184.095 141.111 C 183.994 141.111,184.984 142.194,186.296 143.519 M256.296 146.852 C 256.987 147.565,257.636 148.148,257.738 148.148 C 257.840 148.148,257.358 147.565,256.667 146.852 C 255.976 146.139,255.327 145.556,255.225 145.556 C 255.123 145.556,255.605 146.139,256.296 146.852 M185.717 160.833 L 184.630 162.037 185.833 160.949 C 186.955 159.935,187.207 159.630,186.921 159.630 C 186.857 159.630,186.316 160.171,185.717 160.833 M229.271 163.241 C 229.277 163.394,229.736 163.838,230.289 164.230 L 231.296 164.941 230.398 163.952 C 229.455 162.913,229.252 162.785,229.271 163.241 M179.674 166.737 C 179.038 167.387,178.519 168.081,178.519 168.280 C 178.519 168.479,178.560 168.571,178.611 168.484 C 178.662 168.396,179.278 167.702,179.980 166.940 C 181.535 165.254,181.285 165.088,179.674 166.737 M139.321 167.056 C 139.538 167.677,139.784 168.117,139.868 168.033 C 140.051 167.850,139.353 165.926,139.103 165.926 C 139.006 165.926,139.105 166.434,139.321 167.056 M245.216 169.815 C 245.216 170.019,245.536 170.769,245.926 171.481 C 246.316 172.194,246.636 172.611,246.636 172.407 C 246.636 172.204,246.316 171.454,245.926 170.741 C 245.536 170.028,245.216 169.611,245.216 169.815 M237.329 172.025 C 237.881 172.936,238.466 173.686,238.629 173.692 C 238.791 173.698,238.408 172.954,237.778 172.037 C 236.302 169.893,236.031 169.885,237.329 172.025 M179.304 181.481 C 179.298 181.787,179.522 182.537,179.801 183.148 C 180.456 184.579,180.466 183.913,179.815 182.222 C 179.540 181.509,179.310 181.176,179.304 181.481 M190.328 200.681 C 190.740 201.259,191.369 201.968,191.727 202.255 C 192.085 202.543,191.815 202.069,191.127 201.204 C 189.714 199.426,189.190 199.083,190.328 200.681 M192.593 203.178 C 192.593 203.381,193.343 204.174,194.259 204.940 C 195.176 205.706,195.926 206.276,195.926 206.207 C 195.926 206.137,195.176 205.344,194.259 204.444 C 193.343 203.545,192.593 202.975,192.593 203.178 M200.370 210.505 C 200.370 210.607,200.870 211.046,201.481 211.481 C 202.093 211.917,202.593 212.189,202.593 212.087 C 202.593 211.986,202.093 211.546,201.481 211.111 C 200.870 210.676,200.370 210.403,200.370 210.505 M259.074 216.296 C 261.308 218.537,263.219 220.370,263.321 220.370 C 263.423 220.370,261.678 218.537,259.444 216.296 C 257.211 214.056,255.300 212.222,255.198 212.222 C 255.096 212.222,256.840 214.056,259.074 216.296 M269.630 226.852 C 270.321 227.565,270.969 228.148,271.071 228.148 C 271.173 228.148,270.691 227.565,270.000 226.852 C 269.309 226.139,268.660 225.556,268.558 225.556 C 268.457 225.556,268.939 226.139,269.630 226.852 M263.875 253.426 L 262.037 255.370 263.981 253.532 C 265.788 251.825,266.096 251.481,265.819 251.481 C 265.761 251.481,264.886 252.356,263.875 253.426 M222.756 255.753 C 223.151 256.052,223.642 256.296,223.845 256.296 C 224.049 256.296,223.892 256.052,223.497 255.753 C 223.101 255.453,222.611 255.209,222.407 255.209 C 222.204 255.209,222.361 255.453,222.756 255.753 " stroke="none" fill="#f8741c" fill-rule="evenodd"></path></g></svg>